<?xml version="1.0" encoding="utf-8"?>
<!-- Generator: Adobe Illustrator 24.1.2, SVG Export Plug-In . SVG Version: 6.00 Build 0)  -->
<svg version="1.1"
	 id="svg2" xmlns:cc="http://creativecommons.org/ns#" xmlns:dc="http://purl.org/dc/elements/1.1/" xmlns:inkscape="http://www.inkscape.org/namespaces/inkscape" xmlns:rdf="http://www.w3.org/1999/02/22-rdf-syntax-ns#" xmlns:sodipodi="http://sodipodi.sourceforge.net/DTD/sodipodi-0.dtd" xmlns:svg="http://www.w3.org/2000/svg"
	 xmlns="http://www.w3.org/2000/svg" xmlns:xlink="http://www.w3.org/1999/xlink" x="0px" y="0px" viewBox="0 0 595.3 841.9"
	 style="enable-background:new 0 0 595.3 841.9;" xml:space="preserve">
<style type="text/css">
	.st0{clip-path:url(#SVGID_2_);}
	.st1{fill:#119586;}
	.st2{fill:#858585;}
	.st3{clip-path:url(#SVGID_4_);}
	.st4{clip-path:url(#SVGID_6_);}
	.st5{clip-path:url(#SVGID_8_);}
	.st6{clip-path:url(#SVGID_10_);}
	.st7{fill:#FFFFFF;}
	.st8{fill:none;stroke:#D9D9D9;stroke-width:2.133;stroke-miterlimit:10;}
	.st9{clip-path:url(#SVGID_12_);}
	.st10{clip-path:url(#SVGID_14_);}
	.st11{clip-path:url(#SVGID_16_);}
	.st12{clip-path:url(#SVGID_18_);}
	.st13{display:none;}
	.st14{display:inline;}
	.st15{display:inline;clip-path:url(#SVGID_20_);}
	.st16{clip-path:url(#SVGID_22_);}
	.st17{clip-path:url(#SVGID_24_);}
	.st18{clip-path:url(#SVGID_26_);}
	.st19{fill:none;}
	.st20{font-family:'SourceSansPro-Regular';}
	.st21{font-size:10px;}
	.st22{font-size:9.8px;}
</style>
<sodipodi:namedview  bordercolor="#666666" borderopacity="1.0" id="base" inkscape:current-layer="layer1" inkscape:cx="410.26757" inkscape:cy="540.2583" inkscape:document-units="px" inkscape:pageopacity="0.0" inkscape:pageshadow="2" inkscape:window-height="1048" inkscape:window-maximized="0" inkscape:window-width="958" inkscape:window-x="-7" inkscape:window-y="0" inkscape:zoom="0.7" pagecolor="#ffffff" showgrid="false">
	</sodipodi:namedview>
<g id="g4148" transform="matrix(1.25,0,0,-1.25,-257.14286,1010.9336)">
	<g>
		<defs>
			<rect id="SVGID_1_" x="-61.3" y="74.5" width="1024" height="768"/>
		</defs>
		<clipPath id="SVGID_2_">
			<use xlink:href="#SVGID_1_"  style="overflow:visible;"/>
		</clipPath>
		<g id="g4150" class="st0">
			<g id="g4156" transform="translate(473.7501,67.6389)">
				<path id="path4158" inkscape:connector-curvature="0" class="st1" d="M-53.6,137.8h-144.3c-1.8,0-3.3,1.5-3.3,3.3V166
					c0,1.8,1.5,3.3,3.3,3.3h144.3c1.8,0,3.3-1.5,3.3-3.3v-24.9C-50.3,139.3-51.8,137.8-53.6,137.8"/>
			</g>
			<g id="g4160" transform="translate(777.2168,78.8972)">
				<path id="path4162" inkscape:connector-curvature="0" class="st2" d="M-114.3,135.6h-60.9c-1.8,0-3.3,1.5-3.3,3.3v15.9
					c0,1.8,1.5,3.3,3.3,3.3h60.9c1.8,0,3.3-1.5,3.3-3.3v-15.9C-111,137.1-112.5,135.6-114.3,135.6"/>
			</g>
		</g>
	</g>
</g>
<g id="g4170" transform="matrix(1.25,0,0,-1.25,-257.14286,1010.9336)">
	<g>
		<defs>
			<rect id="SVGID_3_" x="-61.3" y="74.5" width="1024" height="768"/>
		</defs>
		<clipPath id="SVGID_4_">
			<use xlink:href="#SVGID_3_"  style="overflow:visible;"/>
		</clipPath>
		<g id="g4172" class="st3">
			<g id="g4178" transform="translate(677.5694,43.3528)">
				<path id="path4180" inkscape:connector-curvature="0" class="st1" d="M-94.4,142.7h-144.3c-1.8,0-3.3,1.5-3.3,3.3v44.3
					c0,1.8,1.5,3.3,3.3,3.3h144.3c1.8,0,3.3-1.5,3.3-3.3V146C-91.1,144.2-92.6,142.7-94.4,142.7"/>
			</g>
		</g>
	</g>
</g>
<g id="g4204" transform="matrix(1.25,0,0,-1.25,-257.14286,1010.9336)">
	<g>
		<defs>
			<rect id="SVGID_5_" x="-61.3" y="84.9" width="1024" height="768"/>
		</defs>
		<clipPath id="SVGID_6_">
			<use xlink:href="#SVGID_5_"  style="overflow:visible;"/>
		</clipPath>
		<g id="g4206" class="st4">
			<g id="g4212" transform="translate(264.7473,609.4139)">
				<path id="path4214" inkscape:connector-curvature="0" class="st1" d="M-11.8,39.9v25.9c0,0.7,0.6,1.4,1.4,1.4h32.7v3.4h-33.7
					c-2,0-3.7-1.8-3.7-3.7V39.9v-4.3V-107c0-2,1.8-3.7,3.7-3.7h2.2v0h2.7H3l2.5,1.7L3-107.3h-9.6h-2.7h-1.2c-0.7,0-1.4,0.6-1.4,1.4
					V35.6V39.9z"/>
			</g>
		</g>
	</g>
</g>
<g id="g4220" transform="matrix(1.25,0,0,-1.25,-257.14286,1010.9336)">
	<g>
		<defs>
			<rect id="SVGID_7_" x="-61.3" y="84.9" width="1024" height="768"/>
		</defs>
		<clipPath id="SVGID_8_">
			<use xlink:href="#SVGID_7_"  style="overflow:visible;"/>
		</clipPath>
		<g id="g4222" class="st5">
			<g id="g4228" transform="translate(264.7473,379.2834)">
				<path id="path4230" inkscape:connector-curvature="0" class="st1" d="M-11.8,85.9v25.9c0,0.7,0.6,1.4,1.4,1.4h32.7v3.4h-33.7
					c-2,0-3.7-1.8-3.7-3.7V85.9v-4.3V10.3c0-2,1.8-3.7,3.7-3.7h2.2v0h2.7H3l2.5,1.7L3,9.9h-9.6h-2.7v0h-1.2c-0.7,0-1.4,0.6-1.4,1.4
					v70.3V85.9z"/>
			</g>
			<g id="g4232" transform="translate(331.8875,616.5278)">
				<path id="path4234" inkscape:connector-curvature="0" class="st1" d="M-25.2,38.4V48h-3.6v-9.6h0V22.9l1.8-2.8l1.8,2.8
					L-25.2,38.4L-25.2,38.4z"/>
			</g>
		</g>
	</g>
</g>
<g id="g4240" transform="matrix(1.25,0,0,-1.25,157.71652,517.62097)">
	<path id="path4242" inkscape:connector-curvature="0" class="st1" d="M-25.2,82.8v9.6h-3.6v-9.6h0V67.3l1.8-2.8l1.8,2.8L-25.2,82.8
		L-25.2,82.8z"/>
</g>
<g id="g4248" transform="matrix(1.25,0,0,-1.25,157.71652,610.00647)">
	<path id="path4250" inkscape:connector-curvature="0" class="st1" d="M-25.2,97.6v9.6h-3.6v-9.6h0V82.1l1.8-2.8l1.8,2.8L-25.2,97.6
		L-25.2,97.6z"/>
</g>
<g id="g4256" transform="matrix(1.25,0,0,-1.25,157.71652,426.6731)">
	<path id="path4258" inkscape:connector-curvature="0" class="st1" d="M-25.2,68.3v9.6h-3.6v-9.6h0V44.6l1.8-2.8l1.8,2.8L-25.2,68.3
		L-25.2,68.3z"/>
</g>
<g id="g4264" transform="matrix(1.25,0,0,-1.25,157.71652,846.02723)">
	<path id="path4266" inkscape:connector-curvature="0" class="st1" d="M-25.2,125v9.6h-3.6V125h0v-15.5l1.8-2.8l1.8,2.8L-25.2,125
		L-25.2,125z"/>
</g>
<g id="g4272" transform="matrix(1.25,0,0,-1.25,157.71652,146.09685)">
	<path id="path4274" inkscape:connector-curvature="0" class="st1" d="M-25.2,23.4V33h-3.6v-9.6h0V7.8l1.8-2.8l1.8,2.8L-25.2,23.4
		L-25.2,23.4z"/>
</g>
<g id="g4276" transform="matrix(1.25,0,0,-1.25,157.71652,320.76347)">
	<path id="path4278" inkscape:connector-curvature="0" class="st1" d="M-25.2,51.3v9.6h-3.6v-9.6h0V35.8L-27,33l1.8,2.8L-25.2,51.3
		L-25.2,51.3z"/>
</g>
<g id="g4280" transform="matrix(1.25,0,0,-1.25,420.28952,846.02723)">
	<path id="path4282" inkscape:connector-curvature="0" class="st1" d="M-67.2,125v9.6h-3.6V125h0v-15.5l1.8-2.8l1.8,2.8L-67.2,125
		L-67.2,125z"/>
</g>
<g id="g4284" transform="matrix(1.25,0,0,-1.25,420.28952,320.76347)">
	<path id="path4286" inkscape:connector-curvature="0" class="st1" d="M-67.2,51.3v9.6h-3.6v-9.6h0V35.8l1.8-2.8l1.8,2.8L-67.2,51.3
		L-67.2,51.3z"/>
</g>
<g id="g4288" transform="matrix(1.25,0,0,-1.25,605.75814,380.3641)">
	<path id="path4290" inkscape:connector-curvature="0" class="st2" d="M-96.9,60.9h-9.6v-3.6h9.6v0h15.5l2.8,1.8l-2.8,1.8
		L-96.9,60.9L-96.9,60.9z"/>
</g>
<g id="g4296" transform="matrix(1.25,0,0,-1.25,605.75814,571.9371)">
	<path id="path4298" inkscape:connector-curvature="0" class="st2" d="M-96.9,91.5h-9.6v-3.6h9.6v0h15.5l2.8,1.8l-2.8,1.8
		L-96.9,91.5L-96.9,91.5z"/>
</g>
<g id="g4304" transform="matrix(1.25,0,0,-1.25,605.75814,655.94747)">
	<path id="path4306" inkscape:connector-curvature="0" class="st2" d="M-96.9,105h-9.6v-3.6h9.6v0h15.5l2.8,1.8l-2.8,1.8L-96.9,105
		L-96.9,105z"/>
</g>
<g id="g4312" transform="matrix(1.25,0,0,-1.25,605.75814,734.1106)">
	<path id="path4314" inkscape:connector-curvature="0" class="st2" d="M-94.3,117.5h-8.2v-3.6h8.2v0H-81l2.4,1.8l-2.4,1.8
		L-94.3,117.5L-94.3,117.5z"/>
</g>
<g id="g4320" transform="matrix(1.25,0,0,-1.25,-257.14286,1010.9336)">
	<g>
		<defs>
			<rect id="SVGID_9_" x="-61.3" y="84.9" width="1024" height="768"/>
		</defs>
		<clipPath id="SVGID_10_">
			<use xlink:href="#SVGID_9_"  style="overflow:visible;"/>
		</clipPath>
		<g id="g4322" class="st6">
			<g id="g4328" transform="translate(720.3069,712.0612)">
				<path id="path4330" inkscape:connector-curvature="0" class="st2" d="M-102.9,19.3v2.1c0,1.8-1.6,3.5-3.5,3.5h-6.4h-3h-25.7
					v-3.2h25.7h3h5.4c0.7,0,1.3-0.6,1.3-1.3v-1.1h0v-1.7v-478.3l1.6-2.4l1.6,2.4V17.7L-102.9,19.3L-102.9,19.3z"/>
			</g>
			<g id="g4332" transform="translate(448.4861,461.9223)">
				<path id="path4334" inkscape:connector-curvature="0" class="st2" d="M-48.6,69.4h-2.3c-2,0-3.9,1.8-3.9,3.8v7v3.3v28.3h3.5
					V83.6v-3.3v-5.9c0-0.8,0.6-1.4,1.4-1.4h1.2h1.8h207.4l2.5-1.8l-2.5-1.8H-46.7L-48.6,69.4L-48.6,69.4z"/>
			</g>
			<g id="g4336" transform="translate(679.2125,702.6)">
				<path id="path4338" inkscape:connector-curvature="0" class="st7" d="M-94.7,21.2h-308.6c-1.8,0-3.3,1.5-3.3,3.3v15.9
					c0,1.8,1.5,3.3,3.3,3.3h308.6c1.8,0,3.3-1.5,3.3-3.3V24.5C-91.4,22.7-92.9,21.2-94.7,21.2"/>
			</g>
			<g id="g4340" transform="translate(679.2125,702.6)">
				<path id="path4342" inkscape:connector-curvature="0" class="st8" d="M-94.7,21.2h-308.6c-1.8,0-3.3,1.5-3.3,3.3v15.9
					c0,1.8,1.5,3.3,3.3,3.3h308.6c1.8,0,3.3-1.5,3.3-3.3V24.5C-91.4,22.7-92.9,21.2-94.7,21.2z"/>
			</g>
		</g>
	</g>
</g>
<g id="g4348" transform="matrix(1.25,0,0,-1.25,-257.14286,1010.9336)">
	<g>
		<defs>
			<rect id="SVGID_11_" x="-61.3" y="84.9" width="1024" height="768"/>
		</defs>
		<clipPath id="SVGID_12_">
			<use xlink:href="#SVGID_11_"  style="overflow:visible;"/>
		</clipPath>
		<g id="g4350" class="st9">
			<g id="g4356" transform="translate(679.2125,626.8112)">
				<path id="path4358" inkscape:connector-curvature="0" class="st7" d="M-94.7,36.4h-308.6c-1.8,0-3.3,1.5-3.3,3.3v24.9
					c0,1.8,1.5,3.3,3.3,3.3h308.6c1.8,0,3.3-1.5,3.3-3.3V39.7C-91.4,37.9-92.9,36.4-94.7,36.4"/>
			</g>
			<g id="g4360" transform="translate(679.2125,626.8112)">
				<path id="path4362" inkscape:connector-curvature="0" class="st8" d="M-94.7,36.4h-308.6c-1.8,0-3.3,1.5-3.3,3.3v24.9
					c0,1.8,1.5,3.3,3.3,3.3h308.6c1.8,0,3.3-1.5,3.3-3.3V39.7C-91.4,37.9-92.9,36.4-94.7,36.4z"/>
			</g>
		</g>
	</g>
</g>
<g id="g4370" transform="matrix(1.25,0,0,-1.25,-257.14286,1010.9336)">
	<g>
		<defs>
			<rect id="SVGID_13_" x="-61.3" y="84.9" width="1024" height="768"/>
		</defs>
		<clipPath id="SVGID_14_">
			<use xlink:href="#SVGID_13_"  style="overflow:visible;"/>
		</clipPath>
		<g id="g4372" class="st10">
			<g id="g4378" transform="translate(679.2125,562.8334)">
				<path id="path4380" inkscape:connector-curvature="0" class="st7" d="M-94.7,49.2h-308.6c-1.8,0-3.3,1.5-3.3,3.3v15.9
					c0,1.8,1.5,3.3,3.3,3.3h308.6c1.8,0,3.3-1.5,3.3-3.3V52.5C-91.4,50.7-92.9,49.2-94.7,49.2"/>
			</g>
			<g id="g4382" transform="translate(679.2125,562.8334)">
				<path id="path4384" inkscape:connector-curvature="0" class="st8" d="M-94.7,49.2h-308.6c-1.8,0-3.3,1.5-3.3,3.3v15.9
					c0,1.8,1.5,3.3,3.3,3.3h308.6c1.8,0,3.3-1.5,3.3-3.3V52.5C-91.4,50.7-92.9,49.2-94.7,49.2z"/>
			</g>
			<g id="g4386" transform="translate(473.7501,476.8682)">
				<path id="path4388" inkscape:connector-curvature="0" class="st7" d="M-53.6,66.4h-144.3c-1.8,0-3.3,1.5-3.3,3.3v33.9
					c0,1.8,1.5,3.3,3.3,3.3h144.3c1.8,0,3.3-1.5,3.3-3.3V69.7C-50.3,67.9-51.8,66.4-53.6,66.4"/>
			</g>
			<g id="g4390" transform="translate(473.7501,476.8682)">
				<path id="path4392" inkscape:connector-curvature="0" class="st8" d="M-53.6,66.4h-144.3c-1.8,0-3.3,1.5-3.3,3.3v33.9
					c0,1.8,1.5,3.3,3.3,3.3h144.3c1.8,0,3.3-1.5,3.3-3.3V69.7C-50.3,67.9-51.8,66.4-53.6,66.4z"/>
			</g>
		</g>
	</g>
</g>
<path id="path4404" inkscape:connector-curvature="0" class="st7" d="M339.3,370.9h-32.2v-18.6h32.2V370.9z"/>
<g id="g4412" transform="matrix(1.25,0,0,-1.25,-257.14286,1010.9336)">
	<g>
		<defs>
			<rect id="SVGID_15_" x="-61.3" y="84.9" width="1024" height="768"/>
		</defs>
		<clipPath id="SVGID_16_">
			<use xlink:href="#SVGID_15_"  style="overflow:visible;"/>
		</clipPath>
		<g id="g4414" class="st11">
			<g id="g4420" transform="translate(679.2125,404.3611)">
				<path id="path4422" inkscape:connector-curvature="0" class="st7" d="M-94.7,80.9h-308.6c-1.8,0-3.3,1.5-3.3,3.3v15.9
					c0,1.8,1.5,3.3,3.3,3.3h308.6c1.8,0,3.3-1.5,3.3-3.3V84.2C-91.4,82.4-92.9,80.9-94.7,80.9"/>
			</g>
			<g id="g4424" transform="translate(679.2125,404.3611)">
				<path id="path4426" inkscape:connector-curvature="0" class="st8" d="M-94.7,80.9h-308.6c-1.8,0-3.3,1.5-3.3,3.3v15.9
					c0,1.8,1.5,3.3,3.3,3.3h308.6c1.8,0,3.3-1.5,3.3-3.3V84.2C-91.4,82.4-92.9,80.9-94.7,80.9z"/>
			</g>
		</g>
	</g>
</g>
<g id="g4436" transform="matrix(1.25,0,0,-1.25,157.71652,688.4891)">
	<path id="path4438" inkscape:connector-curvature="0" class="st1" d="M-25.2,110.2v9.6h-3.6v-9.6h0V94.6l1.8-2.8l1.8,2.8
		L-25.2,110.2L-25.2,110.2z"/>
</g>
<g id="g4440" transform="matrix(1.25,0,0,-1.25,-257.14286,1010.9336)">
	<g>
		<defs>
			<rect id="SVGID_17_" x="-61.3" y="84.9" width="1024" height="768"/>
		</defs>
		<clipPath id="SVGID_18_">
			<use xlink:href="#SVGID_17_"  style="overflow:visible;"/>
		</clipPath>
		<g id="g4442" class="st12">
			<g id="g4448" transform="translate(679.2125,267.6639)">
				<path id="path4450" inkscape:connector-curvature="0" class="st7" d="M-94.7,108.2h-308.6c-1.8,0-3.3,1.5-3.3,3.3v15.9
					c0,1.8,1.5,3.3,3.3,3.3h308.6c1.8,0,3.3-1.5,3.3-3.3v-15.9C-91.4,109.7-92.9,108.2-94.7,108.2"/>
			</g>
			<g id="g4452" transform="translate(679.2125,267.6639)">
				<path id="path4454" inkscape:connector-curvature="0" class="st8" d="M-94.7,108.2h-308.6c-1.8,0-3.3,1.5-3.3,3.3v15.9
					c0,1.8,1.5,3.3,3.3,3.3h308.6c1.8,0,3.3-1.5,3.3-3.3v-15.9C-91.4,109.7-92.9,108.2-94.7,108.2z"/>
			</g>
		</g>
	</g>
</g>
<g id="g4464" transform="matrix(1.25,0,0,-1.25,157.71652,766.8156)">
	<path id="path4466" inkscape:connector-curvature="0" class="st1" d="M-25.2,112.3v9.6h-3.6v-9.6h0V96.7L-27,94l1.8,2.8
		L-25.2,112.3L-25.2,112.3z"/>
</g>
<g id="g4468" transform="matrix(1.25,0,0,-1.25,-257.14286,1010.9336)">
	<g class="st13">
		<defs>
			<rect id="SVGID_19_" x="-61.3" y="84.9" width="1024" height="768"/>
		</defs>
		<clipPath id="SVGID_20_" class="st14">
			<use xlink:href="#SVGID_19_"  style="overflow:visible;"/>
		</clipPath>
		<g id="g4470" class="st15">
			<g id="g4476" transform="translate(679.2125,205.0055)">
				<path id="path4478" inkscape:connector-curvature="0" class="st7" d="M-94.7,120.7h-308.6c-1.8,0-3.3,1.5-3.3,3.3V140
					c0,1.8,1.5,3.3,3.3,3.3h308.6c1.8,0,3.3-1.5,3.3-3.3V124C-91.4,122.2-92.9,120.7-94.7,120.7"/>
			</g>
			<g id="g4480" transform="translate(679.2125,205.0055)">
				<path id="path4482" inkscape:connector-curvature="0" class="st8" d="M-94.7,120.7h-308.6c-1.8,0-3.3,1.5-3.3,3.3V140
					c0,1.8,1.5,3.3,3.3,3.3h308.6c1.8,0,3.3-1.5,3.3-3.3V124C-91.4,122.2-92.9,120.7-94.7,120.7z"/>
			</g>
		</g>
	</g>
</g>
<g id="g4488" transform="matrix(1.25,0,0,-1.25,-257.14286,1010.9336)">
	<g>
		<defs>
			<rect id="SVGID_21_" x="-61.3" y="74.5" width="1024" height="768"/>
		</defs>
		<clipPath id="SVGID_22_">
			<use xlink:href="#SVGID_21_"  style="overflow:visible;"/>
		</clipPath>
		<g id="g4490" class="st16">
			<g id="g4496" transform="translate(679.2125,142.3056)">
				<path id="path4498" inkscape:connector-curvature="0" class="st7" d="M-94.7,122.9h-308.6c-1.8,0-3.3,1.5-3.3,3.3v15.9
					c0,1.8,1.5,3.3,3.3,3.3h308.6c1.8,0,3.3-1.5,3.3-3.3v-15.9C-91.4,124.4-92.9,122.9-94.7,122.9"/>
			</g>
			<g id="g4500" transform="translate(679.2125,142.3056)">
				<path id="path4502" inkscape:connector-curvature="0" class="st8" d="M-94.7,122.9h-308.6c-1.8,0-3.3,1.5-3.3,3.3v15.9
					c0,1.8,1.5,3.3,3.3,3.3h308.6c1.8,0,3.3-1.5,3.3-3.3v-15.9C-91.4,124.4-92.9,122.9-94.7,122.9z"/>
			</g>
		</g>
	</g>
</g>
<g id="g4508" transform="matrix(1.25,0,0,-1.25,-257.14286,1010.9336)">
	<g>
		<defs>
			<rect id="SVGID_23_" x="-61.3" y="84.9" width="1024" height="768"/>
		</defs>
		<clipPath id="SVGID_24_">
			<use xlink:href="#SVGID_23_"  style="overflow:visible;"/>
		</clipPath>
		<g id="g4510" class="st17">
			<g id="g4516" transform="translate(679.2125,329.2888)">
				<path id="path4518" inkscape:connector-curvature="0" class="st7" d="M-94.7,95.9h-308.6c-1.8,0-3.3,1.5-3.3,3.3v24.9
					c0,1.8,1.5,3.3,3.3,3.3h308.6c1.8,0,3.3-1.5,3.3-3.3V99.2C-91.4,97.4-92.9,95.9-94.7,95.9"/>
			</g>
			<g id="g4520" transform="translate(679.2125,329.2888)">
				<path id="path4522" inkscape:connector-curvature="0" class="st8" d="M-94.7,95.9h-308.6c-1.8,0-3.3,1.5-3.3,3.3v24.9
					c0,1.8,1.5,3.3,3.3,3.3h308.6c1.8,0,3.3-1.5,3.3-3.3V99.2C-91.4,97.4-92.9,95.9-94.7,95.9z"/>
			</g>
		</g>
	</g>
</g>
<g id="g4530" transform="matrix(1.25,0,0,-1.25,420.28952,426.6731)">
	<path id="path4532" inkscape:connector-curvature="0" class="st1" d="M-67.2,68.3v9.6h-3.6v-9.6h0V45.1l1.8-2.8l1.8,2.8L-67.2,68.3
		L-67.2,68.3z"/>
</g>
<g id="g4534" transform="matrix(1.25,0,0,-1.25,-257.14286,1010.9336)">
	<g>
		<defs>
			<rect id="SVGID_25_" x="-61.3" y="84.9" width="1024" height="768"/>
		</defs>
		<clipPath id="SVGID_26_">
			<use xlink:href="#SVGID_25_"  style="overflow:visible;"/>
		</clipPath>
		<g id="g4536" class="st18">
			<g id="g4542" transform="translate(677.5694,476.8682)">
				<path id="path4544" inkscape:connector-curvature="0" class="st7" d="M-94.4,66.4h-144.3c-1.8,0-3.3,1.5-3.3,3.3v33.9
					c0,1.8,1.5,3.3,3.3,3.3h144.3c1.8,0,3.3-1.5,3.3-3.3V69.7C-91.1,67.9-92.6,66.4-94.4,66.4"/>
			</g>
			<g id="g4546" transform="translate(677.5694,476.8682)">
				<path id="path4548" inkscape:connector-curvature="0" class="st8" d="M-94.4,66.4h-144.3c-1.8,0-3.3,1.5-3.3,3.3v33.9
					c0,1.8,1.5,3.3,3.3,3.3h144.3c1.8,0,3.3-1.5,3.3-3.3V69.7C-91.1,67.9-92.6,66.4-94.4,66.4z"/>
			</g>
		</g>
	</g>
</g>
<g id="flowRoot4965">
</g>
<rect x="89.2" y="88.3" class="st19" width="328" height="21.8"/>
<text transform="matrix(1 0 0 1 89.2424 95.4617)" class="st20 st21">Existe-t-il une base légale réglant la publication du jeu de données?</text>
<rect x="89.2" y="139.8" class="st19" width="379.1" height="40.2"/>
<text transform="matrix(1 0 0 1 89.2424 158.8784)"><tspan x="0" y="0" class="st20 st21">Les données à publier permettent-elles de tirer des conclusions sur des personnes en </tspan><tspan x="0" y="12" class="st20 st21">particulier? Ou le jeu de données contient-il des données personnelles?</tspan></text>
<rect x="89.2" y="228.3" class="st19" width="328" height="21.8"/>
<text transform="matrix(1 0 0 1 89.2424 235.4375)" class="st20 st21">Ces données personnelles sont-elles particulièrement sensibles?</text>
<rect x="89.2" y="289.7" class="st19" width="175.5" height="33.8"/>
<text transform="matrix(1 0 0 1 89.2424 296.7121)"><tspan x="0" y="0" class="st20 st22">Existe-t-il une disposition légale (quel </tspan><tspan x="0" y="11.8" class="st20 st22">qu’en soit le niveau normatif) autorisant la </tspan><tspan x="0" y="23.5" class="st20 st22">publication de ces données personnelles?</tspan></text>
<rect x="293.3" y="289.7" class="st19" width="175.5" height="40.2"/>
<text transform="matrix(1 0 0 1 293.3241 296.8546)"><tspan x="0" y="0" class="st20 st21">Existe-t-il une loi autorisant formellement </tspan><tspan x="0" y="12" class="st20 st21">la publication de ces données personnel</tspan><tspan x="167.8" y="12" class="st20 st21">-</tspan><tspan x="0" y="24" class="st20 st21">les particulièrement sensibles?</tspan></text>
<rect x="89.2" y="386.2" class="st19" width="328" height="21.8"/>
<text transform="matrix(1 0 0 1 89.2424 393.3417)" class="st20 st21">Les données à publier sont-elles protégées par le droit d’auteur?</text>
<rect x="89.2" y="449.6" class="st19" width="379.2" height="29.4"/>
<text transform="matrix(1 0 0 1 89.2424 456.7578)"><tspan x="0" y="0" class="st20 st21">Les droits d’auteur de tiers ou de collaborateurs ont-ils été cédés à la Confédération?  </tspan><tspan x="0" y="12" class="st20 st21">Les personnes concernées ont-elles renoncé à leurs droits de la personnalité?</tspan></text>
<rect x="89.2" y="660.1" class="st19" width="328" height="21.8"/>
<text transform="matrix(1 0 0 1 89.2424 667.2372)" class="st20 st21">Est-il possible d’utiliser le jeu de données sans indiquer la source?</text>
<rect x="89.2" y="723.5" class="st19" width="171.9" height="21.8"/>
<text transform="matrix(1 0 0 1 89.2424 730.5928)"><tspan x="0" y="0" class="st7 st20 st21">Le jeu de données peut être publié sous </tspan><tspan x="0" y="12" class="st7 st20 st21">forme d’OGD.</tspan></text>
<rect x="293.3" y="723.5" class="st19" width="171.9" height="47.2"/>
<text transform="matrix(1 0 0 1 293.3242 730.5928)"><tspan x="0" y="0" class="st7 st20 st21">Le jeu de données peut être publié sous </tspan><tspan x="0" y="12" class="st7 st20 st21">forme d’OGD, à condition de mentionner </tspan><tspan x="0" y="24" class="st7 st20 st21">sur la plateforme que l’indication de la </tspan><tspan x="0" y="36" class="st7 st20 st21">source est obligatoire. </tspan></text>
<rect x="497" y="719.1" class="st19" width="76.5" height="21.8"/>
<text transform="matrix(1 0 0 1 496.985 726.2101)"><tspan x="0" y="0" class="st7 st20 st21">Il ne s’agit pas </tspan><tspan x="0" y="12" class="st7 st20 st21">d’OGD</tspan></text>
<rect x="102.7" y="119.3" class="st19" width="16.5" height="10.9"/>
<text transform="matrix(1 0 0 1 102.7407 126.3909)" class="st1 st20 st21">Oui</text>
<rect x="102.7" y="194.9" class="st19" width="16.5" height="10.9"/>
<text transform="matrix(1 0 0 1 102.7407 201.9723)" class="st1 st20 st21">Oui</text>
<rect x="99.7" y="260.8" class="st19" width="19.5" height="10.9"/>
<text transform="matrix(1 0 0 1 99.7169 267.9246)" class="st1 st20 st21">Non</text>
<rect x="34.2" y="260.8" class="st19" width="19.5" height="10.9"/>
<text transform="matrix(1 0 0 1 34.166 267.9246)" class="st1 st20 st21">Non</text>
<rect x="312.9" y="258.9" class="st19" width="16.5" height="10.9"/>
<text transform="matrix(1 0 0 1 312.9093 266.0573)" class="st1 st20 st21">Oui</text>
<rect x="312.9" y="353.2" class="st19" width="16.5" height="10.9"/>
<text transform="matrix(1 0 0 1 312.9093 360.2959)" class="st1 st20 st21">Oui</text>
<rect x="102.7" y="347.7" class="st19" width="16.5" height="10.9"/>
<text transform="matrix(1 0 0 1 102.7407 354.8442)" class="st1 st20 st21">Oui</text>
<rect x="213.1" y="338.1" class="st19" width="19.5" height="10.9"/>
<text transform="matrix(1 0 0 1 213.1283 345.2394)" class="st2 st20 st21">Non</text>
<rect x="102.7" y="416.4" class="st19" width="16.5" height="10.9"/>
<text transform="matrix(1 0 0 1 102.7407 423.5384)" class="st1 st20 st21">Oui</text>
<rect x="34.2" y="456.5" class="st19" width="19.5" height="10.9"/>
<text transform="matrix(1 0 0 1 34.166 463.6482)" class="st1 st20 st21">Non</text>
<rect x="102.7" y="490.3" class="st19" width="16.5" height="10.9"/>
<text transform="matrix(1 0 0 1 102.7407 497.4326)" class="st1 st20 st21">Oui</text>
<rect x="102.7" y="553.1" class="st19" width="16.5" height="10.9"/>
<text transform="matrix(1 0 0 1 102.7407 560.1953)" class="st1 st20 st21">Oui</text>
<rect x="482.5" y="290.1" class="st19" width="19.5" height="10.9"/>
<text transform="matrix(1 0 0 1 482.4981 297.2284)" class="st2 st20 st21">Non</text>
<rect x="485.1" y="443.7" class="st19" width="19.5" height="10.9"/>
<text transform="matrix(1 0 0 1 485.0592 450.8362)" class="st2 st20 st21">Non</text>
<rect x="485.1" y="511" class="st19" width="19.5" height="10.9"/>
<text transform="matrix(1 0 0 1 485.0831 518.1217)" class="st2 st20 st21">Non</text>
<rect x="485.1" y="573.5" class="st19" width="19.5" height="10.9"/>
<text transform="matrix(1 0 0 1 485.0771 580.6353)" class="st2 st20 st21">Non</text>
<rect x="309.9" y="693.4" class="st19" width="19.5" height="10.9"/>
<text transform="matrix(1 0 0 1 309.8855 700.542)" class="st1 st20 st21">Non</text>
<rect x="102.7" y="628.8" class="st19" width="16.5" height="10.9"/>
<text transform="matrix(1 0 0 1 102.7407 635.8792)" class="st1 st20 st21">Oui</text>
<rect x="102.7" y="692.1" class="st19" width="16.5" height="10.9"/>
<text transform="matrix(1 0 0 1 102.7407 699.2507)" class="st1 st20 st21">Oui</text>
<rect x="520.5" y="117.6" class="st19" width="19.5" height="10.9"/>
<text transform="matrix(1 0 0 1 520.4979 124.7044)" class="st2 st20 st21">Non</text>
<rect x="89.2" y="583.5" class="st19" width="383.4" height="21.8"/>
<text transform="matrix(1 0 0 1 89.2424 590.5909)"><tspan x="0" y="0" class="st20 st21">Les jeux de données peuvent-ils être utilisés à des fins commerciales et à des fins non </tspan><tspan x="0" y="12" class="st20 st21">commerciales?</tspan></text>
<path id="path4522_1_" inkscape:connector-curvature="0" class="st8" d="M473.5,613.1H87.7c-2.3,0-4.1-1.9-4.1-4.1v-31.1
	c0-2.3,1.9-4.1,4.1-4.1h385.8c2.3,0,4.1,1.9,4.1,4.1v31.1C477.6,611.2,475.8,613.1,473.5,613.1z"/>
<rect x="89.2" y="523.7" class="st19" width="388.4" height="21.8"/>
<text transform="matrix(1 0 0 1 89.2424 530.7726)" class="st20 st21">Les jeux de données peuvent-ils être publiés et mis à disposition gratuitement?</text>
</svg>
