<?xml version="1.0" encoding="utf-8"?>
<!-- Generator: Adobe Illustrator 17.1.0, SVG Export Plug-In . SVG Version: 6.00 Build 0)  -->
<!DOCTYPE svg PUBLIC "-//W3C//DTD SVG 1.1//EN" "http://www.w3.org/Graphics/SVG/1.1/DTD/svg11.dtd">
<svg version="1.1" id="Layer_1" xmlns="http://www.w3.org/2000/svg" xmlns:xlink="http://www.w3.org/1999/xlink" x="0px" y="0px"
	 viewBox="0 0 37.665 58" enable-background="new 0 0 37.665 58" xml:space="preserve">
<g>
	<g>
		<g>
			<path fill="#009688" d="M14.881,22.654c2.655-1.895,6.373-1.659,8.755,0.722c2.381,2.381,2.617,6.1,0.722,8.755l2.535,2.535
				c1.478-1.832,2.284-4.094,2.284-6.481c0-2.765-1.077-5.364-3.032-7.319c-1.955-1.955-4.554-3.032-7.319-3.032
				c-2.387,0-4.648,0.806-6.481,2.284L14.881,22.654z"/>
			<path d="M22.671,33.789c-2.647,1.807-6.294,1.541-8.642-0.805c-2.347-2.347-2.613-5.995-0.805-8.642l-2.536-2.536
				c-1.421,1.812-2.2,4.028-2.2,6.368c0,2.765,1.077,5.364,3.032,7.319c1.955,1.955,4.554,3.032,7.319,3.032
				c2.339,0,4.555-0.778,6.368-2.2L22.671,33.789z"/>
		</g>
		<path d="M18.833,11.68c-9.098,0-16.5,7.402-16.5,16.5s7.402,16.5,16.5,16.5s16.5-7.402,16.5-16.5S27.93,11.68,18.833,11.68z
			 M32.333,28.18c0,3.298-1.192,6.32-3.164,8.667L10.166,17.843c2.347-1.971,5.369-3.164,8.667-3.164
			C26.277,14.68,32.333,20.736,32.333,28.18z M5.333,28.18c0-3.244,1.151-6.223,3.065-8.554l18.989,18.989
			c-2.33,1.914-5.31,3.065-8.554,3.065C11.388,41.68,5.333,35.623,5.333,28.18z"/>
	</g>
</g>
</svg>
