<?xml version="1.0" encoding="utf-8"?>
<!-- Generator: Adobe Illustrator 17.1.0, SVG Export Plug-In . SVG Version: 6.00 Build 0)  -->
<!DOCTYPE svg PUBLIC "-//W3C//DTD SVG 1.1//EN" "http://www.w3.org/Graphics/SVG/1.1/DTD/svg11.dtd">
<svg version="1.1" id="Layer_1" xmlns="http://www.w3.org/2000/svg" xmlns:xlink="http://www.w3.org/1999/xlink" x="0px" y="0px"
	 viewBox="0 0 120 58" enable-background="new 0 0 120 58" xml:space="preserve">
<g>
	<g>
		<g>
			<path fill="#009688" d="M14.881,22.654c2.655-1.895,6.373-1.659,8.755,0.722c2.381,2.381,2.617,6.1,0.722,8.755l2.535,2.535
				c1.478-1.832,2.284-4.094,2.284-6.481c0-2.765-1.077-5.364-3.032-7.319c-1.955-1.955-4.554-3.032-7.319-3.032
				c-2.387,0-4.648,0.806-6.481,2.284L14.881,22.654z"/>
			<path d="M22.671,33.788c-2.647,1.807-6.294,1.541-8.642-0.805c-2.347-2.347-2.613-5.995-0.805-8.642l-2.536-2.536
				c-1.421,1.812-2.2,4.028-2.2,6.368c0,2.765,1.077,5.364,3.032,7.319c1.955,1.955,4.554,3.032,7.319,3.032
				c2.339,0,4.555-0.778,6.368-2.2L22.671,33.788z"/>
		</g>
		<path d="M18.833,44.68c-9.098,0-16.5-7.402-16.5-16.5s7.402-16.5,16.5-16.5s16.5,7.402,16.5,16.5S27.93,44.68,18.833,44.68z
			 M18.833,14.68c-7.444,0-13.5,6.056-13.5,13.5s6.056,13.5,13.5,13.5s13.5-6.056,13.5-13.5S26.277,14.68,18.833,14.68z"/>
	</g>
	<g>
		<path d="M84.288,53.625h-2.802l-0.561,2.171h-2.101l2.871-9.133h2.466l2.871,9.133h-2.185L84.288,53.625z M83.869,52.014
			l-0.225-0.84c-0.252-0.911-0.49-1.989-0.742-2.941h-0.056c-0.211,0.966-0.463,2.031-0.715,2.941l-0.225,0.84H83.869z"/>
		<path d="M88.584,53.233c0.645,0.561,1.485,0.953,2.241,0.953c0.854,0,1.274-0.336,1.274-0.882c0-0.575-0.518-0.757-1.316-1.093
			l-1.177-0.504c-0.952-0.378-1.849-1.163-1.849-2.493c0-1.513,1.358-2.717,3.25-2.717c1.05,0,2.157,0.42,2.941,1.205l-1.037,1.303
			c-0.602-0.462-1.176-0.729-1.904-0.729c-0.701,0-1.163,0.308-1.163,0.826c0,0.561,0.603,0.756,1.4,1.079l1.163,0.477
			c1.106,0.448,1.807,1.19,1.807,2.479c0,1.513-1.261,2.83-3.432,2.83c-1.19,0-2.451-0.448-3.39-1.316L88.584,53.233z"/>
		<path d="M95.738,46.664h2.073v3.74h0.042l2.731-3.74h2.256l-2.76,3.642l3.277,5.491h-2.269l-2.214-3.852l-1.064,1.401v2.451
			h-2.073V46.664z"/>
	</g>
	<g>
		<g>
			<path d="M54.843,44.68c-9.098,0-16.5-7.402-16.5-16.5s7.402-16.5,16.5-16.5s16.5,7.402,16.5,16.5S63.941,44.68,54.843,44.68z
				 M54.843,14.68c-7.444,0-13.5,6.056-13.5,13.5s6.056,13.5,13.5,13.5s13.5-6.056,13.5-13.5S62.288,14.68,54.843,14.68z"/>
			<g id="TcAFxh.tif_22_">
				<g>
					<path d="M46.643,27.163c0-1.424,0-2.848,0-4.273c0.192-0.929,0.755-1.481,1.688-1.654c1.401,0,2.802,0,4.204,0
						c1.221,0.428,1.679,0.951,1.681,1.948c0.004,2.291,0.017,4.582-0.004,6.873c-0.015,1.655-0.691,3.008-2.002,4.026
						c-0.805,0.625-1.737,0.931-2.741,1.039c-0.345,0-0.689,0-1.034,0c-0.396-0.137-0.562-0.414-0.529-0.831
						c0.018-0.234,0.003-0.47,0.003-0.706c0-0.867,0.14-1.007,1.008-1.007c1.798,0,2.821-1.058,2.764-2.858
						c-0.017-0.518-0.409-0.904-0.929-0.907c-0.585-0.003-1.173-0.035-1.756,0.006C47.79,28.905,46.869,28.354,46.643,27.163z"/>
					<path d="M63.044,22.959c0,2.458,0,4.916,0,7.374c-0.011,0.055-0.027,0.109-0.033,0.164c-0.142,1.448-0.78,2.63-1.916,3.537
						c-0.819,0.654-1.773,0.978-2.806,1.088c-0.345,0-0.689,0-1.034,0c-0.397-0.137-0.562-0.414-0.529-0.831
						c0.018-0.234,0.003-0.47,0.003-0.706c0-0.867,0.14-1.007,1.009-1.007c1.798,0,2.821-1.059,2.763-2.858
						c-0.017-0.518-0.409-0.903-0.93-0.906c-0.752-0.004-1.504,0.006-2.256-0.004c-0.914-0.012-1.748-0.685-1.805-1.591
						c-0.076-1.195,0.004-2.399-0.056-3.595c-0.06-1.198,0.415-2.159,1.697-2.389c1.401,0,2.802,0,4.204,0
						C62.315,21.422,62.879,21.995,63.044,22.959z"/>
				</g>
			</g>
		</g>
		<g>
			<path d="M47.641,46.664h3.124c1.905,0,3.376,0.518,3.376,2.269c0,0.812-0.477,1.695-1.541,1.975v0.056
				c1.303,0.238,1.989,0.924,1.989,2.143c0,1.863-1.569,2.689-3.558,2.689h-3.391V46.664z M50.667,50.348
				c1.008,0,1.456-0.435,1.456-1.121c0-0.687-0.476-0.967-1.429-0.967h-0.98v2.087H50.667z M50.863,54.2
				c1.121,0,1.709-0.42,1.709-1.247c0-0.798-0.574-1.148-1.709-1.148h-1.148V54.2H50.863z"/>
			<path d="M57.415,52.546l-2.746-5.883h2.199l0.827,2.101c0.238,0.687,0.476,1.317,0.742,2.017h0.056
				c0.253-0.7,0.519-1.331,0.771-2.017l0.812-2.101h2.157l-2.76,5.883v3.25h-2.059V52.546z"/>
		</g>
	</g>
	<path d="M117.667,13.739c0-6.464-5.24-11.704-11.704-11.704c-5.904,0-10.773,4.376-11.575,10.058
		c-1.114-0.238-2.268-0.37-3.452-0.37c-9.098,0-16.5,7.402-16.5,16.5s7.402,16.5,16.5,16.5s16.5-7.402,16.5-16.5
		c0-0.971-0.101-1.918-0.263-2.844C113.069,24.774,117.667,19.794,117.667,13.739z M90.937,41.724c-7.444,0-13.5-6.056-13.5-13.5
		s6.056-13.5,13.5-13.5c1.184,0,2.326,0.169,3.421,0.456c0.636,5.168,4.636,9.283,9.746,10.101c0.212,0.949,0.333,1.931,0.333,2.943
		C104.437,35.668,98.381,41.724,90.937,41.724z M105.743,20.137c-0.867,0-1.496-0.68-1.496-1.564c0-0.901,0.629-1.581,1.496-1.581
		c0.867,0,1.513,0.68,1.513,1.581C107.255,19.457,106.61,20.137,105.743,20.137z M106.847,15.007h-2.193
		c-0.34-2.328,2.142-3.297,2.142-4.572c0-0.697-0.459-1.071-1.139-1.071c-0.629,0-1.088,0.323-1.547,0.782l-1.377-1.258
		c0.765-0.918,1.835-1.547,3.093-1.547c1.92,0,3.365,0.901,3.365,2.906C109.193,12.355,106.644,12.984,106.847,15.007z
		 M90.216,18.509c0.557,0,1.113,0,1.67,0c0.183,0.106,0.244,0.263,0.237,0.474c-0.013,0.43-0.004,0.86-0.004,1.29
		c0,0.162,0,0.325,0,0.438c0.563,0.158,1.096,0.287,1.615,0.458c0.656,0.216,1.233,0.58,1.744,1.043
		c0.182,0.164,0.205,0.281,0.102,0.468c-0.288,0.526-0.582,1.05-0.872,1.575c-0.081,0.148-0.209,0.208-0.363,0.176
		c-0.093-0.02-0.183-0.078-0.261-0.137c-0.983-0.743-2.055-1.213-3.321-1.078c-0.568,0.06-1.084,0.25-1.488,0.674
		c-0.534,0.56-0.504,1.426,0.056,1.953c0.298,0.281,0.629,0.51,1.005,0.667c0.652,0.272,1.308,0.536,1.962,0.804
		c0.907,0.372,1.797,0.769,2.55,1.427c0.694,0.607,1.048,1.373,1.125,2.265c0.165,1.917-0.868,3.609-2.643,4.354
		c-0.382,0.16-0.789,0.259-1.212,0.394c0,0.036,0,0.104,0,0.172c0,0.531-0.005,1.062,0.003,1.593
		c0.003,0.18-0.047,0.321-0.198,0.421c-0.595,0-1.189,0-1.784,0c-0.158-0.141-0.195-0.318-0.19-0.525
		c0.012-0.487,0.004-0.974,0.004-1.461c0-0.08,0-0.16,0-0.195c-0.533-0.153-1.036-0.275-1.524-0.444
		c-0.896-0.31-1.684-0.809-2.367-1.466c-0.232-0.223-0.232-0.358-0.041-0.61c0.336-0.443,0.673-0.886,1.012-1.328
		c0.187-0.243,0.378-0.255,0.606-0.055c0.846,0.743,1.81,1.244,2.936,1.393c0.732,0.096,1.42-0.018,2.04-0.455
		c0.599-0.423,0.94-1.455,0.249-2.159c-0.212-0.217-0.47-0.412-0.744-0.541c-0.747-0.353-1.51-0.674-2.273-0.993
		c-0.748-0.313-1.485-0.646-2.135-1.139c-1.308-0.992-1.814-2.306-1.479-3.908c0.254-1.217,1.039-2.053,2.089-2.661
		c0.502-0.29,1.049-0.462,1.631-0.582c0-0.074,0-0.142,0-0.21c0-0.538,0.008-1.075-0.004-1.613
		C89.945,18.764,90.02,18.609,90.216,18.509z"/>
</g>
</svg>
