<?xml version="1.0" encoding="utf-8"?>
<!-- Generator: Adobe Illustrator 17.1.0, SVG Export Plug-In . SVG Version: 6.00 Build 0)  -->
<!DOCTYPE svg PUBLIC "-//W3C//DTD SVG 1.1//EN" "http://www.w3.org/Graphics/SVG/1.1/DTD/svg11.dtd">
<svg version="1.1" id="Layer_1" xmlns="http://www.w3.org/2000/svg" xmlns:xlink="http://www.w3.org/1999/xlink" x="0px" y="0px"
	 viewBox="0 0 83.906 58" enable-background="new 0 0 83.906 58" xml:space="preserve">
<g>
	<g>
		<g>
			<path fill="#009688" d="M14.881,22.654c2.655-1.895,6.373-1.659,8.755,0.722c2.381,2.381,2.617,6.1,0.722,8.755l2.535,2.535
				c1.478-1.832,2.284-4.094,2.284-6.481c0-2.765-1.077-5.364-3.032-7.319c-1.955-1.955-4.554-3.032-7.319-3.032
				c-2.387,0-4.648,0.806-6.481,2.284L14.881,22.654z"/>
			<path d="M22.671,33.788c-2.647,1.807-6.294,1.541-8.642-0.805c-2.347-2.347-2.613-5.995-0.805-8.642l-2.536-2.536
				c-1.421,1.812-2.2,4.028-2.2,6.368c0,2.765,1.077,5.364,3.032,7.319c1.955,1.955,4.554,3.032,7.319,3.032
				c2.339,0,4.555-0.778,6.368-2.2L22.671,33.788z"/>
		</g>
		<path d="M18.833,44.68c-9.098,0-16.5-7.402-16.5-16.5s7.402-16.5,16.5-16.5s16.5,7.402,16.5,16.5S27.93,44.68,18.833,44.68z
			 M18.833,14.68c-7.444,0-13.5,6.056-13.5,13.5s6.056,13.5,13.5,13.5s13.5-6.056,13.5-13.5S26.277,14.68,18.833,14.68z"/>
	</g>
	<g>
		<g>
			<path d="M48.195,53.625h-2.802l-0.561,2.171h-2.101l2.871-9.133h2.466l2.871,9.133h-2.185L48.195,53.625z M47.775,52.014
				l-0.225-0.84c-0.252-0.911-0.49-1.989-0.742-2.941h-0.056c-0.211,0.966-0.463,2.031-0.715,2.941l-0.225,0.84H47.775z"/>
			<path d="M52.491,53.233c0.645,0.561,1.485,0.953,2.241,0.953c0.854,0,1.274-0.336,1.274-0.882c0-0.575-0.518-0.757-1.316-1.093
				l-1.177-0.504c-0.952-0.378-1.849-1.163-1.849-2.493c0-1.513,1.358-2.717,3.25-2.717c1.05,0,2.157,0.42,2.941,1.205l-1.037,1.303
				c-0.602-0.462-1.176-0.729-1.904-0.729c-0.701,0-1.163,0.308-1.163,0.826c0,0.561,0.603,0.756,1.4,1.079l1.163,0.477
				c1.106,0.448,1.807,1.19,1.807,2.479c0,1.513-1.261,2.83-3.432,2.83c-1.19,0-2.451-0.448-3.39-1.316L52.491,53.233z"/>
			<path d="M59.644,46.664h2.073v3.74h0.042l2.731-3.74h2.256l-2.76,3.642l3.277,5.491h-2.269l-2.214-3.852l-1.064,1.401v2.451
				h-2.073V46.664z"/>
		</g>
		<path d="M81.574,13.739c0-6.464-5.24-11.704-11.704-11.704c-5.904,0-10.773,4.376-11.575,10.058
			c-1.114-0.238-2.268-0.37-3.452-0.37c-9.098,0-16.5,7.402-16.5,16.5s7.402,16.5,16.5,16.5s16.5-7.402,16.5-16.5
			c0-0.971-0.101-1.918-0.263-2.844C76.975,24.774,81.574,19.794,81.574,13.739z M54.843,41.724c-7.444,0-13.5-6.056-13.5-13.5
			s6.056-13.5,13.5-13.5c1.184,0,2.326,0.169,3.421,0.456c0.636,5.168,4.636,9.283,9.746,10.101
			c0.212,0.949,0.333,1.931,0.333,2.943C68.343,35.668,62.288,41.724,54.843,41.724z M69.649,20.137
			c-0.867,0-1.496-0.68-1.496-1.564c0-0.901,0.629-1.581,1.496-1.581c0.867,0,1.513,0.68,1.513,1.581
			C71.162,19.457,70.516,20.137,69.649,20.137z M70.754,15.007h-2.193c-0.34-2.328,2.142-3.297,2.142-4.572
			c0-0.697-0.459-1.071-1.139-1.071c-0.629,0-1.088,0.323-1.547,0.782l-1.377-1.258c0.765-0.918,1.835-1.547,3.093-1.547
			c1.92,0,3.365,0.901,3.365,2.906C73.099,12.355,70.55,12.984,70.754,15.007z M54.122,18.509c0.557,0,1.113,0,1.67,0
			c0.183,0.106,0.244,0.263,0.237,0.474c-0.013,0.43-0.004,0.86-0.004,1.29c0,0.162,0,0.325,0,0.438
			c0.563,0.158,1.096,0.287,1.615,0.458c0.656,0.216,1.233,0.58,1.744,1.043c0.182,0.164,0.205,0.281,0.102,0.468
			c-0.288,0.526-0.582,1.05-0.872,1.575c-0.081,0.148-0.209,0.208-0.363,0.176c-0.093-0.02-0.183-0.078-0.261-0.137
			c-0.983-0.743-2.055-1.213-3.321-1.078c-0.568,0.06-1.084,0.25-1.488,0.674c-0.534,0.56-0.504,1.426,0.056,1.953
			c0.298,0.281,0.629,0.51,1.005,0.667c0.652,0.272,1.308,0.536,1.962,0.804c0.907,0.372,1.797,0.769,2.55,1.427
			c0.694,0.607,1.048,1.373,1.125,2.265c0.165,1.917-0.868,3.609-2.643,4.354c-0.382,0.16-0.789,0.259-1.212,0.394
			c0,0.036,0,0.104,0,0.172c0,0.531-0.005,1.062,0.003,1.593c0.003,0.18-0.047,0.321-0.198,0.421c-0.595,0-1.189,0-1.784,0
			c-0.158-0.141-0.195-0.318-0.19-0.525c0.012-0.487,0.004-0.974,0.004-1.461c0-0.08,0-0.16,0-0.195
			c-0.533-0.153-1.036-0.275-1.524-0.444c-0.896-0.31-1.684-0.809-2.367-1.466c-0.232-0.223-0.232-0.358-0.041-0.61
			c0.336-0.443,0.673-0.886,1.012-1.328c0.187-0.243,0.378-0.255,0.606-0.055c0.846,0.743,1.81,1.244,2.936,1.393
			c0.732,0.096,1.42-0.018,2.04-0.455c0.599-0.423,0.94-1.455,0.249-2.159c-0.212-0.217-0.47-0.412-0.744-0.541
			c-0.747-0.353-1.51-0.674-2.273-0.993c-0.748-0.313-1.485-0.646-2.135-1.139c-1.308-0.992-1.814-2.306-1.479-3.908
			c0.254-1.217,1.039-2.053,2.089-2.661c0.502-0.29,1.049-0.462,1.631-0.582c0-0.074,0-0.142,0-0.21
			c0-0.538,0.008-1.075-0.004-1.613C53.852,18.764,53.926,18.609,54.122,18.509z"/>
	</g>
</g>
</svg>
