<?xml version="1.0" encoding="utf-8"?>
<!-- Generator: Adobe Illustrator 16.0.3, SVG Export Plug-In . SVG Version: 6.00 Build 0)  -->
<!DOCTYPE svg PUBLIC "-//W3C//DTD SVG 1.1//EN" "http://www.w3.org/Graphics/SVG/1.1/DTD/svg11.dtd">
<svg version="1.1" id="Logo" xmlns="http://www.w3.org/2000/svg" xmlns:xlink="http://www.w3.org/1999/xlink" x="0px" y="0px"
	 width="158.595px" height="41.519px" viewBox="0 0 158.595 41.519" enable-background="new 0 0 158.595 41.519"
	 xml:space="preserve">
<g>
	<g>
		<path d="M31.195,8.327c0.308,0.195,0.667,0.308,1.155,0.308c0.646,0,1.178-0.33,1.178-1.073c0-1.028-2.401-1.156-2.401-2.529
			c0-0.84,0.735-1.366,1.659-1.366c0.255,0,0.667,0.038,1.028,0.172l-0.083,0.473c-0.232-0.128-0.601-0.195-0.953-0.195
			c-0.54,0-1.133,0.225-1.133,0.9c0,1.051,2.401,1.058,2.401,2.589c0,1.058-0.908,1.478-1.718,1.478
			c-0.51,0-0.908-0.105-1.186-0.225L31.195,8.327z"/>
		<path d="M38.113,5.678c-0.255-0.112-0.563-0.195-0.818-0.195c-0.923,0-1.441,0.668-1.441,1.598c0,0.871,0.525,1.599,1.388,1.599
			c0.3,0,0.578-0.068,0.863-0.173L38.15,8.95c-0.323,0.112-0.623,0.135-0.983,0.135c-1.231,0-1.831-0.938-1.831-2.003
			c0-1.178,0.758-2.003,1.891-2.003c0.458,0,0.788,0.105,0.923,0.15L38.113,5.678z"/>
		<path d="M39.539,3.367h0.473v2.446h0.015c0.203-0.42,0.63-0.735,1.193-0.735c1.028,0,1.306,0.683,1.306,1.628v2.289h-0.473V6.713
			c0-0.66-0.127-1.23-0.908-1.23c-0.84,0-1.133,0.795-1.133,1.463v2.048h-0.473V3.367z"/>
		<path d="M48.228,8.995h-0.57l-1.043-3.309H46.6l-1.043,3.309h-0.57l-1.23-3.827h0.518l1.005,3.31h0.015l1.065-3.31h0.57
			l1.013,3.31h0.015l1.058-3.31h0.473L48.228,8.995z"/>
		<path d="M53.286,8.875c-0.33,0.135-0.758,0.21-1.111,0.21c-1.268,0-1.741-0.855-1.741-2.003c0-1.17,0.646-2.003,1.613-2.003
			c1.081,0,1.523,0.871,1.523,1.898v0.24h-2.619c0,0.811,0.436,1.463,1.261,1.463c0.345,0,0.848-0.143,1.073-0.285V8.875z
			 M53.053,6.811c0-0.668-0.27-1.328-0.975-1.328c-0.698,0-1.126,0.698-1.126,1.328H53.053z"/>
		<path d="M55.529,4.147h-0.473v-0.63h0.473V4.147z M55.056,5.167h0.473v3.827h-0.473V5.167z"/>
		<path d="M56.955,8.597l2.304-3.024h-2.214V5.167h2.761v0.405l-2.303,3.017h2.303v0.405h-2.851V8.597z"/>
		<path d="M63.791,8.875c-0.33,0.135-0.758,0.21-1.111,0.21c-1.268,0-1.741-0.855-1.741-2.003c0-1.17,0.646-2.003,1.613-2.003
			c1.081,0,1.523,0.871,1.523,1.898v0.24h-2.619c0,0.811,0.436,1.463,1.261,1.463c0.345,0,0.848-0.143,1.073-0.285V8.875z
			 M63.558,6.811c0-0.668-0.27-1.328-0.975-1.328c-0.698,0-1.126,0.698-1.126,1.328H63.558z"/>
		<path d="M65.562,6.023c0-0.42,0-0.578-0.03-0.855h0.473v0.735h0.015c0.173-0.427,0.496-0.825,0.983-0.825
			c0.112,0,0.248,0.022,0.33,0.045v0.496c-0.098-0.03-0.225-0.045-0.345-0.045c-0.75,0-0.953,0.841-0.953,1.531v1.891h-0.473V6.023z
			"/>
		<path d="M69.118,4.147h-0.473v-0.63h0.473V4.147z M68.646,5.167h0.473v3.827h-0.473V5.167z"/>
		<path d="M70.604,8.439c0.285,0.143,0.63,0.24,0.998,0.24c0.45,0,0.848-0.248,0.848-0.683c0-0.908-1.838-0.765-1.838-1.876
			c0-0.758,0.615-1.043,1.246-1.043c0.203,0,0.608,0.045,0.945,0.173l-0.045,0.413c-0.248-0.113-0.585-0.18-0.848-0.18
			c-0.488,0-0.826,0.15-0.826,0.638c0,0.713,1.883,0.623,1.883,1.876c0,0.811-0.758,1.088-1.335,1.088
			c-0.368,0-0.735-0.045-1.073-0.18L70.604,8.439z"/>
		<path d="M76.892,5.678c-0.255-0.112-0.563-0.195-0.818-0.195c-0.923,0-1.441,0.668-1.441,1.598c0,0.871,0.525,1.599,1.388,1.599
			c0.3,0,0.578-0.068,0.863-0.173l0.045,0.443c-0.323,0.112-0.623,0.135-0.983,0.135c-1.231,0-1.831-0.938-1.831-2.003
			c0-1.178,0.758-2.003,1.891-2.003c0.458,0,0.788,0.105,0.923,0.15L76.892,5.678z"/>
		<path d="M78.317,3.367h0.473v2.446h0.015c0.203-0.42,0.63-0.735,1.193-0.735c1.028,0,1.306,0.683,1.306,1.628v2.289h-0.473V6.713
			c0-0.66-0.127-1.23-0.908-1.23c-0.84,0-1.133,0.795-1.133,1.463v2.048h-0.473V3.367z"/>
		<path d="M85.641,8.875c-0.33,0.135-0.758,0.21-1.111,0.21c-1.268,0-1.741-0.855-1.741-2.003c0-1.17,0.646-2.003,1.613-2.003
			c1.081,0,1.523,0.871,1.523,1.898v0.24h-2.619c0,0.811,0.436,1.463,1.261,1.463c0.345,0,0.848-0.143,1.073-0.285V8.875z
			 M85.408,6.811c0-0.668-0.27-1.328-0.975-1.328c-0.698,0-1.126,0.698-1.126,1.328H85.408z"/>
		<path d="M89.911,3.757h2.566v0.45h-2.048v1.869h1.943v0.45h-1.943v2.019h2.139v0.45h-2.656V3.757z"/>
		<path d="M94.668,4.147h-0.473v-0.63h0.473V4.147z M94.195,5.167h0.473v3.827h-0.473V5.167z"/>
		<path d="M99.478,8.995h-0.473V8.387H98.99c-0.255,0.488-0.646,0.698-1.193,0.698c-1.05,0-1.576-0.87-1.576-2.003
			c0-1.163,0.45-2.003,1.576-2.003c0.75,0,1.125,0.548,1.193,0.735h0.015V3.367h0.473V8.995z M97.872,8.68
			c0.84,0,1.133-0.901,1.133-1.599s-0.292-1.598-1.133-1.598c-0.9,0-1.133,0.855-1.133,1.598C96.739,7.824,96.972,8.68,97.872,8.68z
			"/>
		<path d="M104.235,8.68c0,1.065-0.48,1.936-1.793,1.936c-0.503,0-0.96-0.143-1.156-0.203l0.038-0.473
			c0.292,0.15,0.713,0.271,1.125,0.271c1.216,0,1.321-0.886,1.321-1.966h-0.015c-0.255,0.555-0.675,0.75-1.163,0.75
			c-1.223,0-1.613-1.065-1.613-1.914c0-1.163,0.45-2.003,1.576-2.003c0.51,0,0.84,0.067,1.193,0.525h0.015V5.167h0.473V8.68z
			 M102.599,8.589c0.855,0,1.163-0.811,1.163-1.508c0-0.923-0.27-1.598-1.133-1.598c-0.9,0-1.133,0.855-1.133,1.598
			C101.496,7.832,101.796,8.589,102.599,8.589z"/>
		<path d="M108.527,8.875c-0.33,0.135-0.758,0.21-1.111,0.21c-1.268,0-1.741-0.855-1.741-2.003c0-1.17,0.646-2.003,1.613-2.003
			c1.081,0,1.523,0.871,1.523,1.898v0.24h-2.619c0,0.811,0.436,1.463,1.261,1.463c0.345,0,0.848-0.143,1.073-0.285V8.875z
			 M108.294,6.811c0-0.668-0.27-1.328-0.975-1.328c-0.698,0-1.126,0.698-1.126,1.328H108.294z"/>
		<path d="M110.298,6.068c0-0.293,0-0.593-0.03-0.901h0.458v0.683h0.015c0.157-0.345,0.442-0.773,1.238-0.773
			c0.946,0,1.306,0.63,1.306,1.471v2.446h-0.473V6.668c0-0.72-0.255-1.186-0.908-1.186c-0.863,0-1.133,0.758-1.133,1.396v2.116
			h-0.473V6.068z"/>
		<path d="M116.549,5.078c1.238,0,1.786,0.96,1.786,2.003s-0.548,2.003-1.786,2.003c-1.238,0-1.786-0.96-1.786-2.003
			S115.311,5.078,116.549,5.078z M116.549,8.68c0.826,0,1.268-0.713,1.268-1.599c0-0.885-0.442-1.598-1.268-1.598
			c-0.825,0-1.268,0.713-1.268,1.598C115.281,7.967,115.724,8.68,116.549,8.68z"/>
		<path d="M119.521,8.439c0.285,0.143,0.63,0.24,0.998,0.24c0.45,0,0.848-0.248,0.848-0.683c0-0.908-1.838-0.765-1.838-1.876
			c0-0.758,0.615-1.043,1.246-1.043c0.203,0,0.608,0.045,0.945,0.173l-0.045,0.413c-0.248-0.113-0.585-0.18-0.848-0.18
			c-0.488,0-0.826,0.15-0.826,0.638c0,0.713,1.884,0.623,1.884,1.876c0,0.811-0.758,1.088-1.336,1.088
			c-0.368,0-0.735-0.045-1.073-0.18L119.521,8.439z"/>
		<path d="M123.024,8.439c0.285,0.143,0.63,0.24,0.998,0.24c0.45,0,0.848-0.248,0.848-0.683c0-0.908-1.838-0.765-1.838-1.876
			c0-0.758,0.615-1.043,1.246-1.043c0.203,0,0.608,0.045,0.945,0.173l-0.045,0.413c-0.248-0.113-0.585-0.18-0.848-0.18
			c-0.488,0-0.826,0.15-0.826,0.638c0,0.713,1.884,0.623,1.884,1.876c0,0.811-0.758,1.088-1.336,1.088
			c-0.368,0-0.735-0.045-1.073-0.18L123.024,8.439z"/>
		<path d="M129.388,8.875c-0.33,0.135-0.758,0.21-1.111,0.21c-1.268,0-1.741-0.855-1.741-2.003c0-1.17,0.646-2.003,1.613-2.003
			c1.081,0,1.523,0.871,1.523,1.898v0.24h-2.619c0,0.811,0.436,1.463,1.261,1.463c0.345,0,0.848-0.143,1.073-0.285V8.875z
			 M129.155,6.811c0-0.668-0.27-1.328-0.975-1.328c-0.698,0-1.126,0.698-1.126,1.328H129.155z"/>
		<path d="M131.158,6.068c0-0.293,0-0.593-0.03-0.901h0.458v0.683h0.015c0.157-0.345,0.442-0.773,1.238-0.773
			c0.946,0,1.306,0.63,1.306,1.471v2.446h-0.473V6.668c0-0.72-0.255-1.186-0.908-1.186c-0.863,0-1.133,0.758-1.133,1.396v2.116
			h-0.473V6.068z"/>
		<path d="M135.623,8.439c0.285,0.143,0.63,0.24,0.998,0.24c0.45,0,0.848-0.248,0.848-0.683c0-0.908-1.838-0.765-1.838-1.876
			c0-0.758,0.615-1.043,1.246-1.043c0.203,0,0.608,0.045,0.945,0.173l-0.045,0.413c-0.248-0.113-0.585-0.18-0.848-0.18
			c-0.488,0-0.826,0.15-0.826,0.638c0,0.713,1.884,0.623,1.884,1.876c0,0.811-0.758,1.088-1.336,1.088
			c-0.368,0-0.735-0.045-1.073-0.18L135.623,8.439z"/>
		<path d="M141.911,5.678c-0.255-0.112-0.563-0.195-0.818-0.195c-0.923,0-1.441,0.668-1.441,1.598c0,0.871,0.525,1.599,1.388,1.599
			c0.3,0,0.578-0.068,0.863-0.173l0.045,0.443c-0.323,0.112-0.623,0.135-0.983,0.135c-1.231,0-1.831-0.938-1.831-2.003
			c0-1.178,0.758-2.003,1.891-2.003c0.458,0,0.788,0.105,0.923,0.15L141.911,5.678z"/>
		<path d="M143.337,3.367h0.473v2.446h0.015c0.203-0.42,0.63-0.735,1.193-0.735c1.028,0,1.306,0.683,1.306,1.628v2.289h-0.473V6.713
			c0-0.66-0.128-1.23-0.908-1.23c-0.84,0-1.133,0.795-1.133,1.463v2.048h-0.473V3.367z"/>
		<path d="M150.292,8.379h-0.015c-0.21,0.458-0.743,0.705-1.216,0.705c-1.088,0-1.261-0.735-1.261-1.081
			c0-1.283,1.366-1.343,2.356-1.343h0.09V6.466c0-0.653-0.232-0.983-0.87-0.983c-0.397,0-0.772,0.09-1.126,0.315V5.34
			c0.293-0.143,0.788-0.263,1.126-0.263c0.945,0,1.343,0.428,1.343,1.426v1.688c0,0.308,0,0.54,0.038,0.803h-0.466V8.379z
			 M150.248,7.066h-0.135c-0.818,0-1.793,0.083-1.793,0.923c0,0.502,0.359,0.69,0.795,0.69c1.11,0,1.133-0.968,1.133-1.381V7.066z"
			/>
		<path d="M152.753,5.573h-0.772V5.167h0.772V4.89c0-0.803,0.03-1.613,1.014-1.613c0.149,0,0.353,0.022,0.442,0.075l-0.03,0.413
			c-0.098-0.053-0.24-0.083-0.375-0.083c-0.646,0-0.578,0.698-0.578,1.155v0.33h0.863v0.405h-0.863v3.422h-0.473V5.573z"/>
		<path d="M157.166,5.573h-0.87v2.477c0,0.345,0.128,0.63,0.511,0.63c0.18,0,0.3-0.038,0.435-0.09l0.03,0.39
			c-0.112,0.045-0.345,0.105-0.578,0.105c-0.84,0-0.87-0.578-0.87-1.275V5.573h-0.75V5.167h0.75V4.245l0.473-0.165v1.088h0.87V5.573
			z"/>
		<path d="M34.872,14.692c-0.33-0.172-0.803-0.225-1.171-0.225c-1.358,0-2.124,0.96-2.124,2.259c0,1.32,0.743,2.258,2.124,2.258
			c0.345,0,0.871-0.045,1.171-0.225l0.03,0.45c-0.285,0.173-0.87,0.225-1.201,0.225c-1.651,0-2.641-1.088-2.641-2.708
			c0-1.591,1.021-2.709,2.641-2.709c0.308,0,0.931,0.053,1.201,0.195L34.872,14.692z"/>
		<path d="M38.121,15.428c1.238,0,1.786,0.96,1.786,2.003s-0.548,2.003-1.786,2.003c-1.238,0-1.786-0.96-1.786-2.003
			S36.883,15.428,38.121,15.428z M38.121,19.03c0.826,0,1.268-0.713,1.268-1.599c0-0.885-0.442-1.598-1.268-1.598
			c-0.825,0-1.268,0.713-1.268,1.598C36.853,18.317,37.295,19.03,38.121,19.03z"/>
		<path d="M41.385,16.418c0-0.293,0-0.593-0.03-0.901h0.458v0.683h0.015c0.157-0.345,0.442-0.773,1.238-0.773
			c0.946,0,1.306,0.63,1.306,1.471v2.446h-0.473v-2.326c0-0.72-0.255-1.186-0.908-1.186c-0.863,0-1.133,0.758-1.133,1.396v2.116
			h-0.473V16.418z"/>
		<path d="M46.465,15.923h-0.773v-0.405h0.773V15.24c0-0.803,0.03-1.613,1.013-1.613c0.15,0,0.353,0.022,0.443,0.075l-0.03,0.413
			c-0.098-0.053-0.24-0.083-0.375-0.083c-0.645,0-0.578,0.698-0.578,1.155v0.33H47.8v0.405h-0.863v3.422h-0.473V15.923z"/>
		<path d="M51.792,19.225c-0.33,0.135-0.758,0.21-1.111,0.21c-1.268,0-1.741-0.855-1.741-2.003c0-1.17,0.646-2.003,1.613-2.003
			c1.081,0,1.523,0.871,1.523,1.898v0.24h-2.619c0,0.811,0.436,1.463,1.261,1.463c0.345,0,0.848-0.143,1.073-0.285V19.225z
			 M51.56,17.161c0-0.668-0.27-1.328-0.975-1.328c-0.698,0-1.126,0.698-1.126,1.328H51.56z M50.772,14.04h0.593l-0.945,1.081h-0.345
			L50.772,14.04z"/>
		<path d="M56.595,19.345h-0.473v-0.608h-0.015c-0.255,0.488-0.646,0.698-1.193,0.698c-1.05,0-1.576-0.87-1.576-2.003
			c0-1.163,0.45-2.003,1.576-2.003c0.75,0,1.125,0.548,1.193,0.735h0.015v-2.446h0.473V19.345z M54.989,19.03
			c0.84,0,1.133-0.901,1.133-1.599s-0.292-1.598-1.133-1.598c-0.9,0-1.133,0.855-1.133,1.598
			C53.855,18.174,54.088,19.03,54.989,19.03z"/>
		<path d="M60.887,19.225c-0.33,0.135-0.758,0.21-1.111,0.21c-1.268,0-1.741-0.855-1.741-2.003c0-1.17,0.646-2.003,1.613-2.003
			c1.081,0,1.523,0.871,1.523,1.898v0.24h-2.619c0,0.811,0.436,1.463,1.261,1.463c0.345,0,0.848-0.143,1.073-0.285V19.225z
			 M60.654,17.161c0-0.668-0.27-1.328-0.975-1.328c-0.698,0-1.126,0.698-1.126,1.328H60.654z M59.866,14.04h0.593l-0.946,1.081
			h-0.345L59.866,14.04z"/>
		<path d="M62.658,16.373c0-0.42,0-0.578-0.03-0.855h0.473v0.736h0.015c0.173-0.428,0.496-0.826,0.983-0.826
			c0.112,0,0.248,0.022,0.33,0.045v0.496c-0.098-0.03-0.225-0.045-0.345-0.045c-0.75,0-0.953,0.84-0.953,1.531v1.891h-0.473V16.373z
			"/>
		<path d="M67.94,18.729h-0.015c-0.21,0.458-0.743,0.705-1.216,0.705c-1.088,0-1.26-0.735-1.26-1.081
			c0-1.283,1.366-1.343,2.356-1.343h0.09v-0.195c0-0.653-0.233-0.983-0.871-0.983c-0.398,0-0.773,0.09-1.125,0.315V15.69
			c0.292-0.143,0.788-0.263,1.125-0.263c0.945,0,1.343,0.428,1.343,1.426v1.688c0,0.308,0,0.54,0.038,0.803H67.94V18.729z
			 M67.896,17.417H67.76c-0.818,0-1.793,0.083-1.793,0.923c0,0.502,0.36,0.69,0.795,0.69c1.11,0,1.133-0.968,1.133-1.381V17.417z"/>
		<path d="M71.729,15.923h-0.871v2.477c0,0.345,0.128,0.63,0.51,0.63c0.18,0,0.3-0.038,0.436-0.09l0.03,0.39
			c-0.112,0.045-0.345,0.105-0.578,0.105c-0.84,0-0.871-0.578-0.871-1.275v-2.236h-0.75v-0.405h0.75v-0.923l0.473-0.165v1.088h0.871
			V15.923z"/>
		<path d="M73.635,14.497h-0.473v-0.63h0.473V14.497z M73.163,15.518h0.473v3.827h-0.473V15.518z"/>
		<path d="M76.907,15.428c1.238,0,1.786,0.96,1.786,2.003s-0.548,2.003-1.786,2.003c-1.238,0-1.786-0.96-1.786-2.003
			S75.669,15.428,76.907,15.428z M76.907,19.03c0.826,0,1.268-0.713,1.268-1.599c0-0.885-0.442-1.598-1.268-1.598
			c-0.825,0-1.268,0.713-1.268,1.598C75.639,18.317,76.082,19.03,76.907,19.03z"/>
		<path d="M80.171,16.418c0-0.293,0-0.593-0.03-0.901h0.458v0.683h0.015c0.157-0.345,0.442-0.773,1.238-0.773
			c0.946,0,1.306,0.63,1.306,1.471v2.446h-0.473v-2.326c0-0.72-0.255-1.186-0.908-1.186c-0.863,0-1.133,0.758-1.133,1.396v2.116
			h-0.473V16.418z"/>
		<path d="M87.232,18.79c0.285,0.143,0.63,0.24,0.998,0.24c0.45,0,0.848-0.248,0.848-0.683c0-0.908-1.838-0.765-1.838-1.876
			c0-0.758,0.615-1.043,1.246-1.043c0.203,0,0.608,0.045,0.945,0.172l-0.045,0.413c-0.248-0.113-0.585-0.18-0.848-0.18
			c-0.488,0-0.826,0.15-0.826,0.638c0,0.713,1.884,0.623,1.884,1.876c0,0.811-0.758,1.088-1.336,1.088
			c-0.368,0-0.735-0.045-1.073-0.18L87.232,18.79z"/>
		<path d="M94.015,18.444c0,0.292,0,0.593,0.03,0.9h-0.458v-0.683h-0.015c-0.158,0.345-0.443,0.772-1.238,0.772
			c-0.945,0-1.306-0.63-1.306-1.471v-2.446h0.473v2.326c0,0.721,0.255,1.186,0.908,1.186c0.863,0,1.133-0.758,1.133-1.396v-2.116
			h0.473V18.444z"/>
		<path d="M96.259,14.497h-0.473v-0.63h0.473V14.497z M95.786,15.518h0.473v3.827h-0.473V15.518z"/>
		<path d="M97.745,18.79c0.285,0.143,0.63,0.24,0.998,0.24c0.45,0,0.848-0.248,0.848-0.683c0-0.908-1.838-0.765-1.838-1.876
			c0-0.758,0.615-1.043,1.246-1.043c0.203,0,0.608,0.045,0.945,0.172l-0.045,0.413c-0.248-0.113-0.585-0.18-0.848-0.18
			c-0.488,0-0.826,0.15-0.826,0.638c0,0.713,1.883,0.623,1.883,1.876c0,0.811-0.758,1.088-1.335,1.088
			c-0.368,0-0.735-0.045-1.073-0.18L97.745,18.79z"/>
		<path d="M101.249,18.79c0.285,0.143,0.63,0.24,0.998,0.24c0.45,0,0.848-0.248,0.848-0.683c0-0.908-1.838-0.765-1.838-1.876
			c0-0.758,0.615-1.043,1.246-1.043c0.203,0,0.608,0.045,0.945,0.172l-0.045,0.413c-0.248-0.113-0.585-0.18-0.848-0.18
			c-0.488,0-0.826,0.15-0.826,0.638c0,0.713,1.884,0.623,1.884,1.876c0,0.811-0.758,1.088-1.336,1.088
			c-0.368,0-0.735-0.045-1.073-0.18L101.249,18.79z"/>
		<path d="M107.612,19.225c-0.33,0.135-0.758,0.21-1.111,0.21c-1.268,0-1.741-0.855-1.741-2.003c0-1.17,0.646-2.003,1.613-2.003
			c1.081,0,1.523,0.871,1.523,1.898v0.24h-2.619c0,0.811,0.436,1.463,1.261,1.463c0.345,0,0.848-0.143,1.073-0.285V19.225z
			 M107.379,17.161c0-0.668-0.27-1.328-0.975-1.328c-0.698,0-1.126,0.698-1.126,1.328H107.379z"/>
		<path d="M34.872,25.042c-0.33-0.172-0.803-0.225-1.171-0.225c-1.358,0-2.124,0.96-2.124,2.259c0,1.32,0.743,2.258,2.124,2.258
			c0.345,0,0.871-0.045,1.171-0.225l0.03,0.45c-0.285,0.173-0.87,0.225-1.201,0.225c-1.651,0-2.641-1.088-2.641-2.708
			c0-1.591,1.021-2.709,2.641-2.709c0.308,0,0.931,0.052,1.201,0.195L34.872,25.042z"/>
		<path d="M38.121,25.778c1.238,0,1.786,0.96,1.786,2.003s-0.548,2.003-1.786,2.003c-1.238,0-1.786-0.96-1.786-2.003
			S36.883,25.778,38.121,25.778z M38.121,29.38c0.826,0,1.268-0.713,1.268-1.599c0-0.885-0.442-1.598-1.268-1.598
			c-0.825,0-1.268,0.713-1.268,1.598C36.853,28.667,37.295,29.38,38.121,29.38z"/>
		<path d="M41.385,26.769c0-0.293,0-0.593-0.03-0.901h0.458v0.683h0.015c0.157-0.345,0.442-0.773,1.238-0.773
			c0.946,0,1.306,0.63,1.306,1.471v2.446h-0.473v-2.326c0-0.72-0.255-1.186-0.908-1.186c-0.863,0-1.133,0.758-1.133,1.396v2.116
			h-0.473V26.769z"/>
		<path d="M46.465,26.273h-0.773v-0.405h0.773V25.59c0-0.803,0.03-1.613,1.013-1.613c0.15,0,0.353,0.022,0.443,0.075l-0.03,0.413
			c-0.098-0.053-0.24-0.083-0.375-0.083c-0.645,0-0.578,0.698-0.578,1.155v0.33H47.8v0.405h-0.863v3.422h-0.473V26.273z"/>
		<path d="M51.792,29.575c-0.33,0.135-0.758,0.21-1.111,0.21c-1.268,0-1.741-0.855-1.741-2.003c0-1.17,0.646-2.003,1.613-2.003
			c1.081,0,1.523,0.871,1.523,1.898v0.24h-2.619c0,0.811,0.436,1.463,1.261,1.463c0.345,0,0.848-0.143,1.073-0.285V29.575z
			 M51.56,27.511c0-0.668-0.27-1.328-0.975-1.328c-0.698,0-1.126,0.698-1.126,1.328H51.56z"/>
		<path d="M56.595,29.695h-0.473v-0.608h-0.015c-0.255,0.488-0.646,0.698-1.193,0.698c-1.05,0-1.576-0.87-1.576-2.003
			c0-1.163,0.45-2.003,1.576-2.003c0.75,0,1.125,0.548,1.193,0.735h0.015v-2.446h0.473V29.695z M54.989,29.38
			c0.84,0,1.133-0.901,1.133-1.599s-0.292-1.598-1.133-1.598c-0.9,0-1.133,0.855-1.133,1.598
			C53.855,28.524,54.088,29.38,54.989,29.38z"/>
		<path d="M60.887,29.575c-0.33,0.135-0.758,0.21-1.111,0.21c-1.268,0-1.741-0.855-1.741-2.003c0-1.17,0.646-2.003,1.613-2.003
			c1.081,0,1.523,0.871,1.523,1.898v0.24h-2.619c0,0.811,0.436,1.463,1.261,1.463c0.345,0,0.848-0.143,1.073-0.285V29.575z
			 M60.654,27.511c0-0.668-0.27-1.328-0.975-1.328c-0.698,0-1.126,0.698-1.126,1.328H60.654z"/>
		<path d="M62.658,26.723c0-0.42,0-0.578-0.03-0.855h0.473v0.735h0.015c0.173-0.427,0.496-0.825,0.983-0.825
			c0.112,0,0.248,0.022,0.33,0.045v0.496c-0.098-0.03-0.225-0.045-0.345-0.045c-0.75,0-0.953,0.841-0.953,1.531v1.891h-0.473V26.723
			z"/>
		<path d="M67.94,29.08h-0.015c-0.21,0.458-0.743,0.705-1.216,0.705c-1.088,0-1.26-0.735-1.26-1.081
			c0-1.283,1.366-1.343,2.356-1.343h0.09v-0.195c0-0.653-0.233-0.983-0.871-0.983c-0.398,0-0.773,0.09-1.125,0.315v-0.458
			c0.292-0.143,0.788-0.263,1.125-0.263c0.945,0,1.343,0.428,1.343,1.426v1.688c0,0.308,0,0.54,0.038,0.803H67.94V29.08z
			 M67.896,27.766H67.76c-0.818,0-1.793,0.083-1.793,0.923c0,0.502,0.36,0.69,0.795,0.69c1.11,0,1.133-0.968,1.133-1.381V27.766z"/>
		<path d="M69.726,29.297l2.304-3.024h-2.214v-0.405h2.761v0.405l-2.303,3.017h2.303v0.405h-2.851V29.297z"/>
		<path d="M74.468,24.847h-0.473v-0.63h0.473V24.847z M73.996,25.868h0.473v3.827h-0.473V25.868z"/>
		<path d="M77.74,25.778c1.238,0,1.786,0.96,1.786,2.003s-0.548,2.003-1.786,2.003c-1.238,0-1.786-0.96-1.786-2.003
			S76.502,25.778,77.74,25.778z M77.74,29.38c0.826,0,1.268-0.713,1.268-1.599c0-0.885-0.442-1.598-1.268-1.598
			c-0.825,0-1.268,0.713-1.268,1.598C76.472,28.667,76.915,29.38,77.74,29.38z"/>
		<path d="M81.004,26.769c0-0.293,0-0.593-0.03-0.901h0.458v0.683h0.015c0.157-0.345,0.442-0.773,1.238-0.773
			c0.946,0,1.306,0.63,1.306,1.471v2.446h-0.473v-2.326c0-0.72-0.255-1.186-0.908-1.186c-0.863,0-1.133,0.758-1.133,1.396v2.116
			h-0.473V26.769z"/>
		<path d="M88.328,29.575c-0.33,0.135-0.758,0.21-1.111,0.21c-1.268,0-1.741-0.855-1.741-2.003c0-1.17,0.646-2.003,1.613-2.003
			c1.081,0,1.523,0.871,1.523,1.898v0.24h-2.619c0,0.811,0.436,1.463,1.261,1.463c0.345,0,0.848-0.143,1.073-0.285V29.575z
			 M88.095,27.511c0-0.668-0.27-1.328-0.975-1.328c-0.698,0-1.126,0.698-1.126,1.328H88.095z"/>
		<path d="M92.605,29.027c0.308,0.195,0.667,0.308,1.155,0.308c0.646,0,1.178-0.33,1.178-1.073c0-1.028-2.401-1.156-2.401-2.529
			c0-0.84,0.735-1.366,1.659-1.366c0.255,0,0.667,0.038,1.028,0.172l-0.083,0.473c-0.232-0.128-0.601-0.195-0.953-0.195
			c-0.54,0-1.133,0.225-1.133,0.9c0,1.051,2.401,1.058,2.401,2.589c0,1.058-0.908,1.478-1.718,1.478
			c-0.51,0-0.908-0.105-1.186-0.225L92.605,29.027z"/>
		<path d="M98.36,29.695h-0.555l-1.298-3.827h0.518l1.058,3.31h0.015l1.111-3.31h0.495L98.36,29.695z"/>
		<path d="M101.421,24.847h-0.473v-0.63h0.473V24.847z M100.949,25.868h0.473v3.827h-0.473V25.868z"/>
		<path d="M102.847,29.297l2.304-3.024h-2.214v-0.405h2.761v0.405l-2.303,3.017h2.303v0.405h-2.851V29.297z"/>
		<path d="M106.764,29.297l2.304-3.024h-2.214v-0.405h2.761v0.405l-2.303,3.017h2.303v0.405h-2.851V29.297z"/>
		<path d="M113.6,29.575c-0.33,0.135-0.758,0.21-1.111,0.21c-1.268,0-1.741-0.855-1.741-2.003c0-1.17,0.646-2.003,1.613-2.003
			c1.081,0,1.523,0.871,1.523,1.898v0.24h-2.619c0,0.811,0.436,1.463,1.261,1.463c0.345,0,0.848-0.143,1.073-0.285V29.575z
			 M113.367,27.511c0-0.668-0.27-1.328-0.975-1.328c-0.698,0-1.126,0.698-1.126,1.328H113.367z"/>
		<path d="M115.371,26.723c0-0.42,0-0.578-0.03-0.855h0.473v0.735h0.015c0.173-0.427,0.496-0.825,0.983-0.825
			c0.112,0,0.248,0.022,0.33,0.045v0.496c-0.098-0.03-0.225-0.045-0.345-0.045c-0.75,0-0.953,0.841-0.953,1.531v1.891h-0.473V26.723
			z"/>
		<path d="M120.653,29.08h-0.015c-0.21,0.458-0.743,0.705-1.216,0.705c-1.088,0-1.26-0.735-1.26-1.081
			c0-1.283,1.366-1.343,2.356-1.343h0.09v-0.195c0-0.653-0.233-0.983-0.871-0.983c-0.398,0-0.773,0.09-1.125,0.315v-0.458
			c0.292-0.143,0.788-0.263,1.125-0.263c0.945,0,1.343,0.428,1.343,1.426v1.688c0,0.308,0,0.54,0.038,0.803h-0.465V29.08z
			 M120.608,27.766h-0.135c-0.818,0-1.793,0.083-1.793,0.923c0,0.502,0.36,0.69,0.795,0.69c1.11,0,1.133-0.968,1.133-1.381V27.766z"
			/>
		<path d="M34.872,35.392c-0.33-0.172-0.803-0.225-1.171-0.225c-1.358,0-2.124,0.96-2.124,2.259c0,1.32,0.743,2.258,2.124,2.258
			c0.345,0,0.871-0.045,1.171-0.225l0.03,0.45c-0.285,0.173-0.87,0.225-1.201,0.225c-1.651,0-2.641-1.088-2.641-2.708
			c0-1.591,1.021-2.709,2.641-2.709c0.308,0,0.931,0.052,1.201,0.195L34.872,35.392z"/>
		<path d="M38.121,36.127c1.238,0,1.786,0.96,1.786,2.003s-0.548,2.003-1.786,2.003c-1.238,0-1.786-0.96-1.786-2.003
			S36.883,36.127,38.121,36.127z M38.121,39.729c0.826,0,1.268-0.713,1.268-1.599c0-0.885-0.442-1.598-1.268-1.598
			c-0.825,0-1.268,0.713-1.268,1.598C36.853,39.017,37.295,39.729,38.121,39.729z"/>
		<path d="M41.385,37.118c0-0.293,0-0.593-0.03-0.901h0.458V36.9h0.015c0.157-0.345,0.442-0.773,1.238-0.773
			c0.946,0,1.306,0.63,1.306,1.471v2.446h-0.473v-2.326c0-0.72-0.255-1.186-0.908-1.186c-0.863,0-1.133,0.758-1.133,1.396v2.116
			h-0.473V37.118z"/>
		<path d="M46.465,36.623h-0.773v-0.405h0.773V35.94c0-0.803,0.03-1.613,1.013-1.613c0.15,0,0.353,0.022,0.443,0.075l-0.03,0.413
			c-0.098-0.053-0.24-0.083-0.375-0.083c-0.645,0-0.578,0.698-0.578,1.155v0.33H47.8v0.405h-0.863v3.422h-0.473V36.623z"/>
		<path d="M51.792,39.924c-0.33,0.135-0.758,0.21-1.111,0.21c-1.268,0-1.741-0.855-1.741-2.003c0-1.17,0.646-2.003,1.613-2.003
			c1.081,0,1.523,0.871,1.523,1.898v0.24h-2.619c0,0.811,0.436,1.463,1.261,1.463c0.345,0,0.848-0.143,1.073-0.285V39.924z
			 M51.56,37.861c0-0.668-0.27-1.328-0.975-1.328c-0.698,0-1.126,0.698-1.126,1.328H51.56z"/>
		<path d="M56.595,40.044h-0.473v-0.608h-0.015c-0.255,0.488-0.646,0.698-1.193,0.698c-1.05,0-1.576-0.87-1.576-2.003
			c0-1.163,0.45-2.003,1.576-2.003c0.75,0,1.125,0.548,1.193,0.735h0.015v-2.446h0.473V40.044z M54.989,39.729
			c0.84,0,1.133-0.901,1.133-1.599s-0.292-1.598-1.133-1.598c-0.9,0-1.133,0.855-1.133,1.598
			C53.855,38.874,54.088,39.729,54.989,39.729z"/>
		<path d="M60.887,39.924c-0.33,0.135-0.758,0.21-1.111,0.21c-1.268,0-1.741-0.855-1.741-2.003c0-1.17,0.646-2.003,1.613-2.003
			c1.081,0,1.523,0.871,1.523,1.898v0.24h-2.619c0,0.811,0.436,1.463,1.261,1.463c0.345,0,0.848-0.143,1.073-0.285V39.924z
			 M60.654,37.861c0-0.668-0.27-1.328-0.975-1.328c-0.698,0-1.126,0.698-1.126,1.328H60.654z"/>
		<path d="M62.658,37.073c0-0.42,0-0.578-0.03-0.855h0.473v0.735h0.015c0.173-0.427,0.496-0.825,0.983-0.825
			c0.112,0,0.248,0.022,0.33,0.045v0.496c-0.098-0.03-0.225-0.045-0.345-0.045c-0.75,0-0.953,0.841-0.953,1.531v1.891h-0.473V37.073
			z"/>
		<path d="M67.94,39.429h-0.015c-0.21,0.458-0.743,0.705-1.216,0.705c-1.088,0-1.26-0.735-1.26-1.081
			c0-1.283,1.366-1.343,2.356-1.343h0.09v-0.195c0-0.653-0.233-0.983-0.871-0.983c-0.398,0-0.773,0.09-1.125,0.315V36.39
			c0.292-0.143,0.788-0.263,1.125-0.263c0.945,0,1.343,0.428,1.343,1.426v1.688c0,0.308,0,0.54,0.038,0.803H67.94V39.429z
			 M67.896,38.116H67.76c-0.818,0-1.793,0.083-1.793,0.923c0,0.502,0.36,0.69,0.795,0.69c1.11,0,1.133-0.968,1.133-1.381V38.116z"/>
		<path d="M69.726,39.647l2.304-3.024h-2.214v-0.405h2.761v0.405l-2.303,3.017h2.303v0.405h-2.851V39.647z"/>
		<path d="M74.468,35.197h-0.473v-0.63h0.473V35.197z M73.996,36.217h0.473v3.827h-0.473V36.217z"/>
		<path d="M79.233,39.144c0,0.292,0,0.593,0.03,0.9h-0.458v-0.683h-0.015c-0.158,0.345-0.443,0.772-1.238,0.772
			c-0.945,0-1.306-0.63-1.306-1.471v-2.446h0.473v2.326c0,0.721,0.255,1.186,0.908,1.186c0.863,0,1.133-0.758,1.133-1.396v-2.116
			h0.473V39.144z"/>
		<path d="M81.004,37.118c0-0.293,0-0.593-0.03-0.901h0.458V36.9h0.015c0.157-0.345,0.442-0.773,1.238-0.773
			c0.946,0,1.306,0.63,1.306,1.471v2.446h-0.473v-2.326c0-0.72-0.255-1.186-0.908-1.186c-0.863,0-1.133,0.758-1.133,1.396v2.116
			h-0.473V37.118z"/>
		<path d="M88.065,39.489c0.285,0.143,0.63,0.24,0.998,0.24c0.45,0,0.848-0.248,0.848-0.683c0-0.908-1.838-0.765-1.838-1.876
			c0-0.758,0.615-1.043,1.246-1.043c0.203,0,0.608,0.045,0.945,0.173l-0.045,0.413c-0.248-0.113-0.585-0.18-0.848-0.18
			c-0.488,0-0.826,0.15-0.826,0.638c0,0.713,1.883,0.623,1.883,1.876c0,0.811-0.758,1.088-1.335,1.088
			c-0.368,0-0.735-0.045-1.073-0.18L88.065,39.489z"/>
		<path d="M93.19,40.044h-0.555l-1.298-3.827h0.518l1.058,3.31h0.015l1.111-3.31h0.495L93.19,40.044z"/>
		<path d="M96.251,35.197h-0.473v-0.63h0.473V35.197z M95.779,36.217h0.473v3.827h-0.473V36.217z"/>
		<path d="M97.677,39.647l2.304-3.024h-2.214v-0.405h2.761v0.405l-2.303,3.017h2.303v0.405h-2.851V39.647z"/>
		<path d="M101.946,37.073c0-0.42,0-0.578-0.03-0.855h0.473v0.735h0.015c0.173-0.427,0.496-0.825,0.983-0.825
			c0.112,0,0.248,0.022,0.33,0.045v0.496c-0.098-0.03-0.225-0.045-0.345-0.045c-0.75,0-0.953,0.841-0.953,1.531v1.891h-0.473V37.073
			z"/>
		<path d="M107.229,39.429h-0.015c-0.21,0.458-0.743,0.705-1.216,0.705c-1.088,0-1.26-0.735-1.26-1.081
			c0-1.283,1.366-1.343,2.356-1.343h0.09v-0.195c0-0.653-0.233-0.983-0.871-0.983c-0.398,0-0.773,0.09-1.125,0.315V36.39
			c0.292-0.143,0.788-0.263,1.125-0.263c0.945,0,1.343,0.428,1.343,1.426v1.688c0,0.308,0,0.54,0.038,0.803h-0.465V39.429z
			 M107.184,38.116h-0.135c-0.818,0-1.793,0.083-1.793,0.923c0,0.502,0.36,0.69,0.795,0.69c1.11,0,1.133-0.968,1.133-1.381V38.116z"
			/>
	</g>
	<g>
		<path fill="#E30613" d="M22.546,3.527c0,0-3.969-1.738-10.613-1.738h-0.002c-6.645,0-10.614,1.738-10.614,1.738
			s-0.355,7.696,1.151,12.048c2.661,7.651,9.462,9.801,9.462,9.801h0.002h0.002c0,0,6.8-2.149,9.462-9.801
			C22.903,11.223,22.546,3.527,22.546,3.527z"/>
	</g>
	<polygon fill="#FFFFFF" points="18.986,10.162 18.986,14.402 14.039,14.402 14.039,19.349 9.798,19.349 9.798,14.402 4.851,14.402 
		4.851,10.162 9.798,10.162 9.798,5.215 14.038,5.215 14.039,10.162 	"/>
</g>
</svg>
