<?xml version="1.0" encoding="utf-8"?>
<!-- Generator: Adobe Illustrator 17.1.0, SVG Export Plug-In . SVG Version: 6.00 Build 0)  -->
<!DOCTYPE svg PUBLIC "-//W3C//DTD SVG 1.1//EN" "http://www.w3.org/Graphics/SVG/1.1/DTD/svg11.dtd">
<svg version="1.1" id="Layer_1" xmlns="http://www.w3.org/2000/svg" xmlns:xlink="http://www.w3.org/1999/xlink" x="0px" y="0px"
	 viewBox="0 0 410 210" enable-background="new 0 0 410 210" xml:space="preserve">
<g>
	<g id="XMLID_1_">
		<path id="XMLID_9_" fill="#009688" d="M28.6,21.8c10.3-7.3,24.6-6.4,33.9,2.8s10.1,23.6,2.8,33.9l9.8,9.8
			c12.7-15.7,11.7-38.8-2.9-53.4S34.5-0.7,18.8,11.9L28.6,21.8z"/>
		<path id="XMLID_7_" d="M58.8,64.8c-10.2,7-24.4,6-33.5-3.1c-9.1-9.1-10.1-23.2-3.1-33.5l-9.8-9.8C0.2,34.2,1.2,57,15.6,71.4
			c7.8,7.8,18.1,11.7,28.3,11.7c8.7,0,17.4-2.9,24.6-8.5L58.8,64.8z"/>
	</g>
	<g>
		<path fill="#009688" d="M7.7,91.8h10.1v11.8l-0.5,6.1c2.5-2.3,5.9-4.7,10.5-4.7c7.4,0,10.6,5.2,10.6,13.7v21.1H28.3v-19.8
			c0-4.9-1.3-6.4-4.2-6.4c-2.5,0-4.1,1.2-6.3,3.3v23H7.7V91.8z"/>
		<path fill="#009688" d="M64.8,118.1c-0.2-3-1.7-4.9-5.4-4.9c-2.9,0-5.8,1.2-9.1,3.1l-3.6-6.7c4.3-2.6,9.2-4.5,14.5-4.5
			c8.7,0,13.5,4.9,13.5,15.4v19.5h-8.2l-0.8-3.5h-0.2c-2.9,2.5-6.1,4.3-9.9,4.3c-6.2,0-10.1-4.5-10.1-10.3
			C45.6,123.3,51.3,119.4,64.8,118.1z M59.2,132.9c2.3,0,3.8-1.1,5.6-2.9v-6c-7.2,1-9.5,3-9.5,5.6C55.3,131.9,56.8,132.9,59.2,132.9
			z"/>
		<path fill="#009688" d="M83.5,105.9h8.2l0.7,4.3h0.3c2.9-2.7,6.3-5.1,10.9-5.1c7.4,0,10.6,5.2,10.6,13.7v21.1h-10.1v-19.8
			c0-4.9-1.3-6.4-4.2-6.4c-2.5,0-4.1,1.2-6.3,3.3v23H83.5V105.9z"/>
		<path fill="#009688" d="M135.1,105.1c3.8,0,6,1.4,8.4,3.6l-0.4-5.2V91.8h10.1v48.1h-8.2l-0.7-3.4H144c-2.4,2.4-5.8,4.2-9.1,4.2
			c-8.4,0-13.9-6.7-13.9-17.8S127.9,105.1,135.1,105.1z M137.5,132.5c2.2,0,3.9-0.8,5.6-3.1v-13.9c-1.8-1.6-3.8-2.2-5.6-2.2
			c-3.2,0-6.1,3-6.1,9.5C131.3,129.5,133.6,132.5,137.5,132.5z"/>
		<path fill="#009688" d="M162.1,91.8h10.1v11.8l-0.3,5.2c2.6-2.3,5.8-3.8,9-3.8c8.2,0,13.4,6.8,13.4,17.2c0,11.7-7,18.5-14.3,18.5
			c-3,0-6.2-1.5-8.8-4.4h-0.3l-0.8,3.6h-7.9V91.8z M177.6,132.5c3.5,0,6.3-3,6.3-10c0-6.1-1.9-9.2-5.9-9.2c-2.1,0-3.9,1-5.8,3.1
			v13.9C173.9,132,175.9,132.5,177.6,132.5z"/>
		<path fill="#009688" d="M216,105.1c8.6,0,16.5,6.5,16.5,17.8s-8,17.8-16.5,17.8c-8.6,0-16.6-6.5-16.6-17.8S207.4,105.1,216,105.1z
			 M216,132.6c4.1,0,6.2-3.8,6.2-9.7c0-5.9-2.1-9.7-6.2-9.7c-4.2,0-6.2,3.8-6.2,9.7C209.8,128.8,211.8,132.6,216,132.6z"/>
		<path fill="#009688" d="M254.1,105.1c8.6,0,16.5,6.5,16.5,17.8s-8,17.8-16.5,17.8c-8.6,0-16.6-6.5-16.6-17.8
			S245.4,105.1,254.1,105.1z M254.1,132.6c4.1,0,6.2-3.8,6.2-9.7c0-5.9-2.1-9.7-6.2-9.7c-4.2,0-6.2,3.8-6.2,9.7
			C247.8,128.8,249.9,132.6,254.1,132.6z"/>
		<path fill="#009688" d="M277.5,91.8h9.8v27.6h0.3l10.8-13.5h11l-11.9,14l12.8,20h-10.9l-7.7-13.2l-4.3,4.9v8.4h-9.8V91.8z"/>
		<path d="M11.6,183.3c2.8,0,5,2.2,5,5.2c0,2.9-2.1,5.1-5,5.1s-5-2.2-5-5.1C6.6,185.5,8.8,183.3,11.6,183.3z"/>
		<path d="M35.5,164.6c7,0,13.4,5.3,13.4,14.5s-6.5,14.5-13.4,14.5c-7,0-13.5-5.3-13.5-14.5S28.5,164.6,35.5,164.6z M35.5,187
			c3.3,0,5.1-3.1,5.1-7.9c0-4.8-1.7-7.9-5.1-7.9c-3.4,0-5.1,3.1-5.1,7.9C30.4,183.9,32.1,187,35.5,187z"/>
		<path d="M62.8,195.1v8.1h-8.2v-37.9h6.7l0.6,2.7H62c2.2-2,5-3.4,7.9-3.4c6.7,0,10.8,5.5,10.8,14.1c0,9.5-5.7,15-11.7,15
			c-2.4,0-4.6-1.1-6.6-2.9L62.8,195.1z M67.2,186.9c2.8,0,5.1-2.5,5.1-8.1c0-5-1.5-7.5-4.8-7.5c-1.7,0-3.1,0.8-4.7,2.5v11.3
			C64.2,186.5,65.8,186.9,67.2,186.9z"/>
		<path d="M98,164.6c7.9,0,11.8,5.7,11.8,13.3c0,1.5-0.2,2.8-0.3,3.5H92.8c0.7,4.2,3.5,6,7.2,6c2.1,0,4-0.6,6-1.8l2.7,5
			c-2.8,2-6.5,3.1-9.8,3.1c-7.9,0-14-5.4-14-14.5C84.9,170.1,91.3,164.6,98,164.6z M102.8,176.3c0-3.2-1.3-5.4-4.6-5.4
			c-2.6,0-4.8,1.7-5.4,5.4H102.8z"/>
		<path d="M115.4,165.3h6.7l0.6,3.5h0.2c2.3-2.2,5.1-4.2,8.9-4.2c6,0,8.6,4.2,8.6,11.2V193h-8.2v-16.1c0-4-1.1-5.2-3.4-5.2
			c-2.1,0-3.3,0.9-5.1,2.7V193h-8.2V165.3z"/>
		<path d="M157.4,164.6c3.1,0,4.9,1.1,6.8,2.9l-0.3-4.2v-9.4h8.2V193h-6.7l-0.6-2.7h-0.2c-2,2-4.7,3.4-7.4,3.4
			c-6.9,0-11.3-5.5-11.3-14.5S151.5,164.6,157.4,164.6z M159.3,186.9c1.8,0,3.2-0.7,4.5-2.5v-11.3c-1.5-1.3-3.1-1.8-4.6-1.8
			c-2.6,0-5,2.5-5,7.7C154.3,184.5,156.2,186.9,159.3,186.9z"/>
		<path d="M193.9,175.2c-0.2-2.5-1.4-4-4.4-4c-2.3,0-4.7,0.9-7.4,2.5l-2.9-5.4c3.5-2.1,7.5-3.6,11.8-3.6c7.1,0,11,4,11,12.5V193
			h-6.7l-0.6-2.8h-0.2c-2.3,2.1-5,3.5-8.1,3.5c-5,0-8.2-3.7-8.2-8.4C178.3,179.5,182.9,176.3,193.9,175.2z M189.3,187.3
			c1.9,0,3.1-0.9,4.6-2.3v-4.9c-5.9,0.8-7.8,2.5-7.8,4.6C186.1,186.4,187.3,187.3,189.3,187.3z"/>
		<path d="M210.2,171.7h-3.8v-6.1l4.2-0.3l0.9-7.4h6.8v7.4h6.6v6.4h-6.6v11.1c0,3.1,1.4,4.4,3.6,4.4c0.9,0,1.9-0.3,2.6-0.6l1.3,6
			c-1.5,0.4-3.5,1-6.1,1c-6.9,0-9.5-4.3-9.5-10.7V171.7z"/>
		<path d="M244.4,175.2c-0.2-2.5-1.4-4-4.4-4c-2.3,0-4.7,0.9-7.4,2.5l-2.9-5.4c3.5-2.1,7.5-3.6,11.8-3.6c7.1,0,11,4,11,12.5V193
			h-6.7l-0.6-2.8h-0.2c-2.3,2.1-5,3.5-8.1,3.5c-5,0-8.2-3.7-8.2-8.4C228.8,179.5,233.4,176.3,244.4,175.2z M239.8,187.3
			c1.9,0,3.1-0.9,4.6-2.3v-4.9c-5.9,0.8-7.8,2.5-7.8,4.6C236.6,186.4,237.8,187.3,239.8,187.3z"/>
		<path d="M264.3,183.3c2.8,0,5,2.2,5,5.2c0,2.9-2.1,5.1-5,5.1c-2.8,0-5-2.2-5-5.1C259.4,185.5,261.5,183.3,264.3,183.3z"/>
		<path d="M277.5,184.6c2.5,1.9,4.8,2.9,7.1,2.9c2.5,0,3.5-0.9,3.5-2.3c0-1.8-2.8-2.7-5.6-3.8c-3.3-1.3-7.3-3.6-7.3-8.1
			c0-5.1,4.2-8.6,10.6-8.6c4.2,0,7.4,1.7,9.8,3.5l-3.7,4.9c-2-1.5-3.9-2.3-5.9-2.3c-2.1,0-3.1,0.8-3.1,2.2c0,1.8,2.6,2.5,5.4,3.5
			c3.5,1.3,7.5,3.2,7.5,8.3c0,5-4,8.9-11.4,8.9c-3.6,0-7.8-1.6-10.6-3.8L277.5,184.6z"/>
		<path d="M298.7,165.3h8.1l2.7,12.8c0.4,2.7,0.8,5.4,1.2,8.2h0.2c0.5-2.8,0.9-5.6,1.6-8.2l3.1-12.8h7.1l3.1,12.8
			c0.7,2.7,1.2,5.4,1.7,8.2h0.2c0.5-2.8,0.8-5.5,1.3-8.2l2.6-12.8h7.6l-6.6,27.7h-9.6l-2.5-11c-0.6-2.6-1-5.1-1.5-8.1h-0.2
			c-0.5,3-0.9,5.5-1.4,8.1l-2.5,11h-9.4L298.7,165.3z"/>
		<path d="M343.7,156.9c0-2.5,2-4.2,4.7-4.2c2.8,0,4.7,1.7,4.7,4.2s-2,4.3-4.7,4.3C345.7,161.2,343.7,159.4,343.7,156.9z
			 M344.3,165.3h8.2V193h-8.2V165.3z"/>
		<path d="M360.9,184.6c2.5,1.9,4.8,2.9,7.1,2.9c2.5,0,3.5-0.9,3.5-2.3c0-1.8-2.8-2.7-5.6-3.8c-3.3-1.3-7.3-3.6-7.3-8.1
			c0-5.1,4.2-8.6,10.6-8.6c4.2,0,7.4,1.7,9.8,3.5l-3.7,4.9c-2-1.5-3.9-2.3-5.9-2.3c-2.1,0-3.1,0.8-3.1,2.2c0,1.8,2.6,2.5,5.4,3.5
			c3.5,1.3,7.5,3.2,7.5,8.3c0,5-4,8.9-11.4,8.9c-3.6,0-7.8-1.6-10.6-3.8L360.9,184.6z"/>
		<path d="M385.7,184.6c2.5,1.9,4.8,2.9,7.1,2.9c2.5,0,3.5-0.9,3.5-2.3c0-1.8-2.8-2.7-5.6-3.8c-3.3-1.3-7.3-3.6-7.3-8.1
			c0-5.1,4.2-8.6,10.6-8.6c4.2,0,7.4,1.7,9.8,3.5l-3.7,4.9c-2-1.5-3.9-2.3-5.9-2.3c-2.1,0-3.1,0.8-3.1,2.2c0,1.8,2.6,2.5,5.4,3.5
			c3.5,1.3,7.5,3.2,7.5,8.3c0,5-4,8.9-11.4,8.9c-3.6,0-7.8-1.6-10.6-3.8L385.7,184.6z"/>
	</g>
</g>
</svg>
